<?xml version="1.0" encoding="UTF-8"?>
<svg version="1.1" xmlns="http://www.w3.org/2000/svg" width="1536" height="1024">
<path d="M0 0 C506.88 0 1013.76 0 1536 0 C1536 337.92 1536 675.84 1536 1024 C1029.12 1024 522.24 1024 0 1024 C0 686.08 0 348.16 0 0 Z " fill="#FDFDFD" transform="translate(0,0)"/>
<path d="M0 0 C1.07636719 0.3403125 2.15273438 0.680625 3.26171875 1.03125 C23.49236598 8.11796193 36.80097819 22.22836221 46.96875 40.58984375 C48 43 48 43 48 47 C48.53109375 46.72285156 49.0621875 46.44570313 49.609375 46.16015625 C50.31578125 45.79792969 51.0221875 45.43570313 51.75 45.0625 C52.44609375 44.70285156 53.1421875 44.34320313 53.859375 43.97265625 C61.10149412 40.68198534 70.53522338 40.97894433 78.07421875 43.2578125 C87.50927707 46.89404187 93.57025218 52.64101903 99 61.125 C101.99849769 69.55215037 100.90343385 80.35302106 97.43359375 88.4453125 C90.20308888 101.33019039 77.46879862 107.97789176 63.81640625 112.30859375 C47.01892259 116.43224785 28.40521761 115.05470254 12 110 C20.46778896 114.70813637 28.71895176 119.06711157 38 122 C38.56007927 136.39611158 36.43561577 147.15842959 26.99609375 158.3828125 C2.12634617 184.63174107 -42.08212137 188.39453323 -76 194 C-73.58115707 185.50455166 -70.12024025 176.54405363 -62 172 C-58.97795514 170.88180183 -55.93432528 169.91753684 -52.8515625 168.98046875 C-49.37371006 167.78465921 -46.93973099 166.16611757 -44 164 C-43.34 164 -42.68 164 -42 164 C-41.71898437 163.43410156 -41.43796875 162.86820313 -41.1484375 162.28515625 C-40.39532445 160.78661499 -39.63006492 159.29410348 -38.8515625 157.80859375 C-33.73959525 147.9265424 -30.59379854 137.88740903 -28 127.10546875 C-27.06891164 123.23836057 -26.04420071 119.40075338 -25 115.5625 C-20.12361808 99.02318967 -20.12361808 99.02318967 -19 82 C-20.32 81.67 -21.64 81.34 -23 81 C-25.94162519 84.37170596 -27.11276359 87.943834 -28.33203125 92.1640625 C-28.76529568 93.60483644 -29.19974495 95.0452545 -29.63525391 96.48535156 C-29.85844299 97.22934204 -30.08163208 97.97333252 -30.31158447 98.73986816 C-32.0938082 104.59107345 -34.04256565 110.39066791 -35.96704102 116.19628906 C-36.45534876 117.67296081 -36.94094248 119.15053231 -37.42407227 120.62890625 C-38.13500927 122.80403776 -38.85367231 124.97647325 -39.57421875 127.1484375 C-39.78882248 127.80975677 -40.00342621 128.47107605 -40.22453308 129.1524353 C-41.18176855 132.01040987 -41.83771031 133.83771031 -44 136 C-46.5625 136.1875 -46.5625 136.1875 -49 136 C-50 135 -50 135 -50.2199707 132.4465332 C-49.95640485 128.31694482 -48.82729026 124.73112792 -47.48046875 120.85546875 C-47.22123123 120.08624588 -46.96199371 119.31702301 -46.69490051 118.52449036 C-45.86755635 116.07586241 -45.02780867 113.63170533 -44.1875 111.1875 C-43.63393037 109.55692395 -43.08118801 107.9260668 -42.52929688 106.29492188 C-41.50536988 103.27190206 -40.47645021 100.25068262 -39.44213867 97.23120117 C-39.20820404 96.54206635 -38.97426941 95.85293152 -38.73324585 95.14291382 C-38.21708666 93.6344366 -37.69095275 92.129354 -37.15762329 90.62686157 C-36.88429169 89.84290009 -36.61096008 89.0589386 -36.3293457 88.2512207 C-36.0794136 87.54592728 -35.82948151 86.84063385 -35.57197571 86.1139679 C-34.64402664 82.68435628 -34.80732122 79.53244429 -35 76 C-36.65 75.67 -38.3 75.34 -40 75 C-43.04981798 78.5118773 -44.44653207 82.44960249 -45.9609375 86.7734375 C-46.23338287 87.5336319 -46.50582825 88.29382629 -46.78652954 89.07705688 C-47.65586143 91.50744011 -48.51557786 93.94109718 -49.375 96.375 C-49.94467717 97.9728829 -50.51498396 99.57054147 -51.0859375 101.16796875 C-51.64857583 102.74474231 -52.21107691 104.32156486 -52.7734375 105.8984375 C-53.04895447 106.67096863 -53.32447144 107.44349976 -53.6083374 108.23944092 C-54.90289578 111.87905602 -56.18257568 115.52216621 -57.42285156 119.18066406 C-57.75490097 120.14669052 -57.75490097 120.14669052 -58.09365845 121.13223267 C-58.68398735 122.85249532 -59.26543776 124.57579762 -59.84619141 126.29931641 C-60.95098681 128.88527636 -61.75601326 130.33226141 -64 132 C-66.13745922 131.74853421 -67.45925779 131.54074221 -69 130 C-68.93113832 123.90983311 -67.38950303 118.52310154 -65.12890625 112.9296875 C-64.84651596 112.20435822 -64.56412567 111.47902893 -64.2731781 110.73171997 C-63.37976242 108.44200997 -62.47193596 106.15838829 -61.5625 103.875 C-60.6593832 101.5834952 -59.75941983 99.29080715 -58.86253357 96.99685669 C-58.30690177 95.5782681 -57.74731384 94.16121999 -57.18299866 92.74606323 C-53.76041554 84.13884608 -53.76041554 84.13884608 -53 75 C-54.65 74.67 -56.3 74.34 -58 74 C-62.25628623 79.72222804 -64.85789472 86.11043269 -67.6875 92.625 C-68.48673872 94.44786167 -69.285983 96.27072112 -70.0861969 98.09315491 C-70.88602629 99.91530459 -71.68422889 101.73816805 -72.48242188 103.56103516 C-74.22070817 107.50014403 -76.00591667 111.41597693 -77.80224609 115.32885742 C-79.57295121 119.20270325 -81.29731333 123.09584174 -83 127 C-83.28520508 127.64710938 -83.57041016 128.29421875 -83.86425781 128.9609375 C-88.72885976 140.2225801 -90.12070512 151.30375499 -85.6953125 162.92578125 C-82.45978118 172.57784377 -87.07528718 181.34521333 -91.14306641 190.00952148 C-92.1600181 192.23726511 -92.1600181 192.23726511 -92.98046875 195.703125 C-96.22514638 201.00004555 -101.31123194 202.07110311 -107 204.0625 C-114.64793969 206.8431566 -121.80796006 209.76014074 -128.85546875 213.86108398 C-131 215 -131 215 -133 215 C-133.05547487 203.44376311 -132.93193769 191.89657067 -132.68261719 180.34301758 C-132.6439476 178.47688224 -132.60916765 176.61066256 -132.578125 174.74438477 C-132.53221684 171.99730753 -132.4744047 169.25069997 -132.4140625 166.50390625 C-132.39673569 165.27082481 -132.39673569 165.27082481 -132.37905884 164.01283264 C-132.02269294 149.87009173 -127.0453214 140.42449692 -117.03564453 130.48364258 C-110.06813948 123.89705626 -101.70337928 118.04707137 -93 114 C-93.64324219 114.18175781 -94.28648437 114.36351562 -94.94921875 114.55078125 C-117.5945768 120.85013192 -140.44659749 125.4633127 -162.23828125 113.73828125 C-172.09318641 107.53540601 -178.89459261 99.30686793 -182 88 C-183.36155434 76.65870123 -180.74852474 67.44268364 -173.93359375 58.375 C-162.4597074 44.28182242 -146.42186744 35.42926339 -128.28930664 33.46875 C-126.19378587 33.28188511 -124.09972956 33.13114303 -122 33 C-120.92226318 32.93208252 -120.92226318 32.93208252 -119.82275391 32.86279297 C-108.01621577 32.23919902 -97.39653337 33.98247816 -86 37 C-85.73316406 36.27296875 -85.46632813 35.5459375 -85.19140625 34.796875 C-78.3907343 18.83201888 -63.19266457 7.83978265 -47.75 1.0625 C-32.5797689 -4.70338076 -15.47020195 -4.92504504 0 0 Z " fill="#FCFCFC" transform="translate(834,270)"/>
<path d="M0 0 C0.99 0.721875 1.98 1.44375 3 2.1875 C10.06988097 8.13486505 15.43301625 17.04460895 20 25 C20 25.66 20 26.32 20 27 C21.18335938 26.97679687 22.36671875 26.95359375 23.5859375 26.9296875 C41.54291712 26.67685262 55.46634506 29.70729947 70 41 C70.63679688 41.47179687 71.27359375 41.94359375 71.9296875 42.4296875 C81.84511544 50.22982414 88.67885278 62.90065965 90.71875 75.27734375 C91.75672972 85.32556409 91.10297869 94.38344105 88 104 C87.7215625 104.87527344 87.443125 105.75054687 87.15625 106.65234375 C84.86351519 113.06607173 81.50080379 117.92683966 77 123 C75.91912109 124.23943359 75.91912109 124.23943359 74.81640625 125.50390625 C67.86920424 132.97585586 58.42478033 140.57221583 48 142 C48.33 142.66 48.66 143.32 49 144 C50.07414252 156.15548621 48.9180981 164.88826021 41.53515625 175.0078125 C27.04835977 191.44829909 0.35161877 196.39504337 -20 200 C-20.99374634 200.17692383 -20.99374634 200.17692383 -22.00756836 200.35742188 C-38.43871545 203.27647696 -54.87737739 205.92465698 -71.4375 208 C-98.87445931 211.48420333 -127.01558789 216.69922172 -152 229 C-152.69577148 229.33902344 -153.39154297 229.67804688 -154.10839844 230.02734375 C-173.60388747 239.62999329 -188.90781959 252.49745819 -204 268 C-204 264.87452947 -203.52877291 263.65245241 -202.20703125 260.89453125 C-201.82627441 260.08411377 -201.44551758 259.27369629 -201.05322266 258.4387207 C-200.64378418 257.57206787 -200.2343457 256.70541504 -199.8125 255.8125 C-193.2158628 241.45185043 -189.40767394 227.58480835 -187 212 C-186.81308594 211.04222656 -186.62617187 210.08445312 -186.43359375 209.09765625 C-183.9275574 191.19417135 -186.96845625 173.1573714 -192 156 C-192.30550781 154.95585937 -192.61101563 153.91171875 -192.92578125 152.8359375 C-193.60423349 150.55299394 -194.29359239 148.27441845 -195 146 C-195.88558594 145.88398438 -196.77117188 145.76796875 -197.68359375 145.6484375 C-210.56069777 143.13065273 -222.4368626 131.98944795 -230 121.6875 C-239.02770037 107.79745366 -242.37567046 91.28905646 -239.3515625 74.97265625 C-236.13409614 61.64904556 -229.60601535 51.62232438 -220 42 C-219.31292969 41.30132812 -218.62585938 40.60265625 -217.91796875 39.8828125 C-201.26024148 23.99770709 -177.6903922 17.36672315 -155.13867188 17.71875 C-153.10528286 17.75030599 -151.07267409 17.75978409 -149.0390625 17.765625 C-142.61271074 17.81622619 -136.35080569 17.99296687 -130 19 C-129.78601563 18.30648437 -129.57203125 17.61296875 -129.3515625 16.8984375 C-127.63139111 13.20951503 -125.15129771 10.53810943 -122.375 7.625 C-121.83085449 7.04919189 -121.28670898 6.47338379 -120.72607422 5.88012695 C-119.16280749 4.24112864 -117.58587322 2.6171037 -116 1 C-115.31421875 0.30003906 -114.6284375 -0.39992188 -113.921875 -1.12109375 C-82.24389298 -30.93971595 -31.90848861 -25.9522374 0 0 Z M-112.78125 20.84765625 C-119.12509479 27.66246788 -119.12509479 27.66246788 -122 36 C-123.09054687 35.71125 -124.18109375 35.4225 -125.3046875 35.125 C-136.38270444 32.33874848 -146.6053589 31.3021071 -158 32 C-158.69367676 32.03867187 -159.38735352 32.07734375 -160.10205078 32.1171875 C-178.65493075 33.31443147 -195.13531086 41.02705534 -208.02734375 54.57421875 C-215.05336675 63.21414011 -218.60741723 72.69139491 -218.37109375 83.8125 C-217.24182438 93.51232953 -212.31006843 101.67714339 -205 108 C-190.22671556 118.7682508 -174.013154 122.10911558 -155.92578125 119.46875 C-148.24997239 118.17791497 -140.87010378 116.21875646 -133.4765625 113.76953125 C-131 113 -131 113 -129 113 C-129.75023437 113.4125 -130.50046875 113.825 -131.2734375 114.25 C-138.40939773 118.27633524 -144.84852207 122.58552022 -151 128 C-151.86882812 128.76183594 -152.73765625 129.52367187 -153.6328125 130.30859375 C-162.63634471 138.70741111 -167.75521976 147.8904841 -168.20532227 160.28271484 C-168.2468584 161.92534792 -168.28362469 163.56810639 -168.31640625 165.2109375 C-168.33718735 166.09673492 -168.35796844 166.98253235 -168.37937927 167.89517212 C-168.42250467 169.76942475 -168.463563 171.64372595 -168.50268555 173.51806641 C-168.56158258 176.33118089 -168.62687879 179.14408686 -168.69335938 181.95703125 C-168.93710448 192.64007162 -169.05999009 203.31414666 -169 214 C-166.06465979 212.84819357 -163.18648625 211.65399877 -160.35546875 210.265625 C-159.35193359 209.78186401 -159.35193359 209.78186401 -158.328125 209.28833008 C-156.86311164 208.57771171 -155.40099164 207.86110581 -153.94140625 207.1394043 C-150.21201491 205.33989396 -146.68501552 203.82079762 -142.64453125 202.87890625 C-134.99478295 201.03215047 -134.99478295 201.03215047 -129.44970703 195.73828125 C-126.28452066 189.75097668 -124.03437507 183.44641244 -122 177 C-121.67 176.01 -121.34 175.02 -121 174 C-120.52919515 168.98411758 -120.60855695 164.51434193 -122.5 159.8125 C-128.50279294 143.42025774 -120.11836126 128.27170511 -113.375 113.6875 C-112.32343876 111.44116177 -111.27134723 109.19507172 -110.21875 106.94921875 C-106.48406756 98.94843212 -102.96002012 90.85836654 -99.47802734 82.74487305 C-98.83534912 81.26241089 -98.83534912 81.26241089 -98.1796875 79.75 C-97.80569824 78.87859375 -97.43170898 78.0071875 -97.04638672 77.109375 C-96 75 -96 75 -94 73 C-91.375 73.375 -91.375 73.375 -89 74 C-89.53389666 79.48457481 -90.56968592 84.3253474 -92.5 89.5 C-92.75410645 90.20487549 -93.00821289 90.90975098 -93.27001953 91.63598633 C-94.9235306 96.18921015 -96.65467134 100.71115068 -98.3984375 105.23046875 C-98.80771484 106.29910156 -99.21699219 107.36773437 -99.63867188 108.46875 C-100.45079653 110.58309666 -101.27214174 112.69392916 -102.10351562 114.80078125 C-102.47927734 115.77789062 -102.85503906 116.755 -103.2421875 117.76171875 C-103.5810498 118.62756592 -103.91991211 119.49341309 -104.26904297 120.38549805 C-105.11215495 123.4011581 -105.26167838 125.88298066 -105 129 C-104.34 129.66 -103.68 130.32 -103 131 C-100.97922654 131.05901922 -100.97922654 131.05901922 -99 130 C-96.647285 126.54313802 -95.16988042 123.06229503 -93.80078125 119.125 C-93.39988281 117.98401855 -92.99898437 116.84303711 -92.5859375 115.66748047 C-92.16570312 114.45721191 -91.74546875 113.24694336 -91.3125 112 C-90.4247783 109.48118787 -89.53580191 106.96286615 -88.64453125 104.4453125 C-88.42237946 103.8166629 -88.20022766 103.18801331 -87.97134399 102.54031372 C-85.87785308 96.62760995 -83.71556589 90.7429463 -81.5 84.875 C-81.17427002 83.99972656 -80.84854004 83.12445313 -80.51293945 82.22265625 C-80.20960693 81.42472656 -79.90627441 80.62679687 -79.59375 79.8046875 C-79.33271484 79.11358887 -79.07167969 78.42249023 -78.80273438 77.71044922 C-78 76 -78 76 -76 74 C-73.375 74.375 -73.375 74.375 -71 75 C-70.72613495 81.05008224 -71.51555465 85.65487245 -73.51953125 91.33984375 C-73.77876877 92.10623672 -74.03800629 92.8726297 -74.30509949 93.6622467 C-75.12960018 96.09136247 -75.97062444 98.51435832 -76.8125 100.9375 C-77.36635355 102.55886291 -77.91909752 104.18060531 -78.47070312 105.80273438 C-79.49289861 108.80441591 -80.52173917 111.80363633 -81.55786133 114.80053711 C-81.79187653 115.48236053 -82.02589172 116.16418396 -82.26699829 116.8666687 C-82.78737566 118.38117722 -83.31223384 119.89414945 -83.84017944 121.40603638 C-84.11294708 122.19960541 -84.38571472 122.99317444 -84.66674805 123.81079102 C-84.91595505 124.52904556 -85.16516205 125.24730011 -85.42192078 125.98731995 C-86.20708862 128.72101386 -86.28187863 131.18121371 -86 134 C-84.94945399 135.24660324 -84.94945399 135.24660324 -82.625 135.375 C-81.75875 135.25125 -80.8925 135.1275 -80 135 C-76.99317428 130.93132672 -75.55921339 126.29541059 -73.96875 121.55078125 C-73.69156128 120.73812302 -73.41437256 119.92546478 -73.12878418 119.08818054 C-72.54457617 117.37196155 -71.963129 115.65480058 -71.38427734 113.93676758 C-70.50814547 111.33667329 -69.62401976 108.7394136 -68.73828125 106.14257812 C-64.93763948 94.99926437 -64.93763948 94.99926437 -61.62304688 83.70385742 C-61 82 -61 82 -59 80 C-56.875 80.375 -56.875 80.375 -55 81 C-54.75415045 87.76769183 -55.56211571 93.52377771 -57.25 100.0625 C-57.47816406 100.97862061 -57.70632813 101.89474121 -57.94140625 102.83862305 C-58.40397827 104.69230289 -58.87071186 106.54494968 -59.34179688 108.39648438 C-59.92762714 110.71372992 -60.49327669 113.03426209 -61.046875 115.359375 C-69.48525475 150.57708773 -69.48525475 150.57708773 -78 161 C-78 161.66 -78 162.32 -78 163 C-81.20423436 164.65947221 -84.47685186 166.0629903 -87.8125 167.4375 C-88.87339844 167.88222656 -89.93429687 168.32695312 -91.02734375 168.78515625 C-92.71376965 169.47435264 -94.40961334 170.14355257 -96.12890625 170.74609375 C-102.32098683 172.97635096 -105.51317458 177.1632936 -108.484375 182.83203125 C-111.00681532 187.71934531 -111.00681532 187.71934531 -112 193 C-53.40150652 185.30012858 -53.40150652 185.30012858 -6 154 C-0.7048614 145.45945387 2.15689886 137.78817752 2.0625 127.6875 C2.05347656 126.43324219 2.04445313 125.17898438 2.03515625 123.88671875 C2.02355469 122.93410156 2.01195312 121.98148437 2 121 C1.04480469 120.63648438 0.08960938 120.27296875 -0.89453125 119.8984375 C-8.93746015 116.78807387 -16.54052821 113.37332858 -24 109 C-23.06285156 109.28875 -22.12570312 109.5775 -21.16015625 109.875 C-12.11177 112.43905192 -3.53381887 113.38622185 5.875 113.375 C6.9074585 113.37628906 7.93991699 113.37757813 9.00366211 113.37890625 C18.89169319 113.23964935 28.08883162 111.93932623 37.125 107.8125 C37.80876709 107.50425293 38.49253418 107.19600586 39.19702148 106.87841797 C49.53158532 102.05275932 58.55533256 94.71831664 62.9375 83.875 C65.21120821 75.70967051 65.53420818 66.27506223 61.9375 58.5 C56.60242971 49.51383412 49.20022811 44.03484707 39.125 41.1875 C38.09375 41.125625 37.0625 41.06375 36 41 C35.11570312 40.938125 34.23140625 40.87625 33.3203125 40.8125 C25.11017545 40.47824506 19.25272919 42.3736354 12 46 C11.90589844 45.14792969 11.81179688 44.29585937 11.71484375 43.41796875 C8.54994461 28.2852543 -4.44170424 16.08580567 -16.82421875 7.9375 C-21.10322542 5.32693751 -25.40880291 3.00964163 -30 1 C-30.66257812 0.70480469 -31.32515625 0.40960938 -32.0078125 0.10546875 C-61.09582438 -11.84770212 -91.89860188 -0.81351164 -112.78125 20.84765625 Z " fill="#121212" transform="translate(870,271)"/>
<path d="M0 0 C1.67194448 1.43309527 3.34189995 2.86785871 5.00390625 4.3125 C6.23103861 5.34991914 7.48470878 6.35793879 8.77734375 7.3125 C14.92133474 11.99363599 19.69725651 19.08679599 21.68359375 26.578125 C23.39879085 39.70679416 20.56288435 50.16586805 13 61 C-1.56867143 79.46643001 -29.03641635 86.57911882 -51.33213806 89.2828064 C-65.4490454 90.7912639 -79.55575626 91.41591555 -93.74078369 91.83370972 C-145.42330621 93.08965703 -145.42330621 93.08965703 -195.87255859 103.35595703 C-197.93589333 103.98059291 -200.00638548 104.57011985 -202.08203125 105.15234375 C-229.07975943 112.89659378 -257.72842808 129.95034183 -273.01171875 154.16015625 C-274.13932988 156.13408523 -274.13932988 156.13408523 -275 159 C-275.66 159 -276.32 159 -277 159 C-273.46247543 137.65561018 -255.81129864 118.17369103 -238.8125 106 C-237.21999218 104.9815357 -235.61526224 103.98197688 -234 103 C-233.04351563 102.37222656 -232.08703125 101.74445313 -231.1015625 101.09765625 C-194.93712153 77.83633064 -152.33968691 72.6568933 -110.67724609 66.80078125 C-51.12605161 60.51369208 -51.12605161 60.51369208 -3.0625 28.4375 C1.93243836 20.72118142 2.36164602 10.45482578 0.48828125 1.57421875 C0.32714844 1.05472656 0.16601562 0.53523438 0 0 Z " fill="#161613" transform="translate(932,420)"/>
<path d="M0 0 C0.56714438 6.38037431 -0.85300601 12.38591812 -4 18 C-5.890625 18.93359375 -5.890625 18.93359375 -8 19 C-9.9375 18.29296875 -9.9375 18.29296875 -12 17.1875 C-23.31404989 11.84475422 -38.02091058 10.97865238 -49.84375 15.0859375 C-55.01755315 17.27918014 -58.7916685 19.72454141 -61 25 C-61.57101952 30.23434563 -60.96933741 33.63878569 -58 38 C-52.99948391 43.02806715 -46.50660997 45.83515076 -40.21826172 48.89355469 C-27.86644816 54.93885317 -15.50809019 61.38721365 -9 74 C-6.15289276 82.54132172 -6.79387316 94.34090641 -10.0625 102.625 C-16.55394158 115.57181959 -26.33900386 123.46690425 -40.0390625 128.2109375 C-49.88147006 130.83384822 -59.35710624 131.47498073 -69.5 131.5 C-70.25234924 131.50367584 -71.00469849 131.50735168 -71.77984619 131.51113892 C-84.77557118 131.52135269 -95.86642539 130.02346604 -107.421875 123.66796875 C-109.73254063 121.22575532 -109.46557368 119.42682216 -109.375 116.125 C-109.36210938 115.09632813 -109.34921875 114.06765625 -109.3359375 113.0078125 C-109.0000282 110.00025249 -108.26180972 107.73560348 -107 105 C-104.2249333 105.87633685 -101.49770248 106.78119026 -98.83203125 107.953125 C-84.61891719 114.167015 -69.91698569 114.45145338 -55.12890625 110.36328125 C-49.95519838 108.10906896 -46.31744062 104.12276348 -44 99 C-43.26833953 93.35576208 -44.63120642 89.48692126 -48 85 C-50.83582486 82.78529178 -50.83582486 82.78529178 -54.1875 81.125 C-54.79045898 80.79822266 -55.39341797 80.47144531 -56.01464844 80.13476562 C-59.43165886 78.2949707 -62.89359215 76.54234864 -66.34765625 74.7734375 C-79.63305816 67.9408189 -90.44817877 61.65328804 -96.13671875 47.08984375 C-99.15594509 36.28347256 -96.58699831 26.46387469 -91.375 16.9375 C-83.52533121 4.53924563 -70.21750535 -2.71742356 -56.14038086 -5.91699219 C-38.18094734 -9.33407874 -16.36978203 -8.88499834 0 0 Z " fill="#111110" transform="translate(828,598)"/>
<path d="M0 0 C0.73283203 0.00064453 1.46566406 0.00128906 2.22070312 0.00195312 C6.03507556 0.03290836 9.60481331 0.27337606 13.3125 1.1875 C12.53308111 7.77713246 11.54727731 14.32293333 10.5 20.875 C10.32694336 21.96119629 10.15388672 23.04739258 9.97558594 24.16650391 C8.64730263 32.38391066 7.15839199 40.56185851 5.53198242 48.7253418 C5.37189697 49.53527588 5.21181152 50.34520996 5.046875 51.1796875 C4.90475586 51.88464355 4.76263672 52.58959961 4.61621094 53.31591797 C4.23241017 55.36503323 4.23241017 55.36503323 4.3125 58.1875 C4.75078125 57.75179687 5.1890625 57.31609375 5.640625 56.8671875 C16.35484719 46.80627154 27.28003463 43.59169784 41.546875 43.8515625 C48.45549352 44.17784776 53.39265749 46.14097011 58.203125 51.16015625 C64.10759085 58.54073856 64.05401784 65.97280682 63.3125 75.1875 C62.14603648 84.53170038 60.56052144 93.85425685 58.73999023 103.09277344 C57.62118634 108.82272236 57.02233346 114.22671748 57.125 120.0625 C57.12564453 120.78179688 57.12628906 121.50109375 57.12695312 122.2421875 C57.15810313 126.00787706 57.41522018 129.52659834 58.3125 133.1875 C48.51890658 135.52129247 38.60996098 137.04262233 29.3125 132.1875 C25.6659655 128.31305709 25.46566093 123.32184973 25.3125 118.1875 C25.68101669 114.73529556 26.3817153 111.38896461 27.125 108 C27.50346425 106.14366867 27.87976445 104.28689484 28.25390625 102.4296875 C28.43711426 101.5334668 28.62032227 100.63724609 28.80908203 99.71386719 C32.46010639 83.89350658 32.46010639 83.89350658 30.04296875 68.47265625 C28.19887589 66.03745462 27.19676624 65.11344525 24.3125 64.1875 C18.04397161 63.87717681 13.13122666 65.0411538 8.3125 69.1875 C1.39363799 76.58907331 -0.30161433 83.37083193 -1.6875 93.125 C-2.02640798 95.37794194 -2.36754608 97.63054956 -2.7109375 99.8828125 C-2.87561523 100.96852539 -3.04029297 102.05423828 -3.20996094 103.17285156 C-3.99485005 108.12776503 -5.00343798 113.02355698 -6.03125 117.93359375 C-6.90518631 122.2668613 -7.5936094 126.62243023 -8.2578125 130.9921875 C-8.6875 133.1875 -8.6875 133.1875 -9.6875 134.1875 C-11.90605264 134.27533542 -14.12738496 134.29444609 -16.34765625 134.28515625 C-17.56332275 134.28265869 -18.77898926 134.28016113 -20.03149414 134.27758789 C-21.60432961 134.26842387 -23.17716486 134.25922136 -24.75 134.25 C-27.4146313 134.23851225 -30.07926243 134.22734767 -32.74389648 134.21655273 C-36.21569824 134.20202637 -36.21569824 134.20202637 -39.6875 134.1875 C-35.60552772 107.95330072 -31.34027711 81.75254287 -26.93603516 55.57055664 C-26.08819975 50.5284902 -25.24750349 45.48525769 -24.40816116 40.44177151 C-23.75135675 36.50267994 -23.08955893 32.56443939 -22.42635345 28.62642097 C-22.11351513 26.76363283 -21.80253386 24.90053177 -21.49350739 23.03710747 C-21.06639703 20.46448872 -20.63223241 17.893156 -20.19628906 15.32202148 C-20.07264481 14.56748184 -19.94900055 13.8129422 -19.8216095 13.03553772 C-18.54455639 5.59538962 -18.54455639 5.59538962 -16.6875 2.1875 C-11.11709831 0.16466056 -5.87858352 -0.09981509 0 0 Z " fill="#111111" transform="translate(471.6875,592.8125)"/>
<path d="M0 0 C-0.65965039 6.86036401 -2.2362764 13.34443923 -4 20 C-4.59425781 19.87882813 -5.18851562 19.75765625 -5.80078125 19.6328125 C-7.5666154 19.27580093 -9.33366443 18.92477168 -11.1015625 18.578125 C-12.93378213 18.21266879 -14.76263614 17.82950128 -16.5859375 17.421875 C-30.81673881 14.43041527 -44.28735373 14.93411963 -56.8125 22.8125 C-69.37871225 31.93715502 -76.20807932 44.54803377 -79.5859375 59.61328125 C-80.20522524 64.67858759 -80.22505261 69.71387761 -80.25 74.8125 C-80.270625 75.85470703 -80.29125 76.89691406 -80.3125 77.97070312 C-80.36388894 88.2035262 -78.27988981 96.52423872 -71 104 C-61.43441071 111.38988663 -50.98109637 112.99359803 -39.140625 111.51953125 C-30.55006613 109.95839555 -22.93319498 107.8013226 -15 104 C-16.42599006 119.40069267 -16.42599006 119.40069267 -20.58984375 123.60546875 C-32.80749324 131.72558344 -46.46053654 132.22058068 -60.625 132.375 C-62.54119141 132.43107422 -62.54119141 132.43107422 -64.49609375 132.48828125 C-79.14794126 132.62188472 -92.15583454 127.82849274 -103.2109375 118.04296875 C-115.25414412 105.60755042 -118.35890853 90.76748046 -118.23071289 74.046875 C-117.77430155 51.96442756 -109.46950273 33.72477505 -94 18 C-93.23945313 17.2265625 -92.47890625 16.453125 -91.6953125 15.65625 C-69.38576269 -5.70240097 -28.1099486 -14.91122087 0 0 Z " fill="#101010" transform="translate(438,597)"/>
<path d="M0 0 C0.66 0 1.32 0 2 0 C3.05365083 17.20963018 -3.31011365 33.80234707 -14 47 C-14.49371094 47.64582031 -14.98742187 48.29164063 -15.49609375 48.95703125 C-31.51028545 69.05416134 -60.46120989 78.73833548 -85.05859375 81.6171875 C-104.76755486 83.69963074 -124.47398956 83.21770988 -144.25 82.5625 C-145.43424561 82.52342529 -146.61849121 82.48435059 -147.83862305 82.4440918 C-148.94890869 82.40195557 -150.05919434 82.35981934 -151.203125 82.31640625 C-152.17926758 82.27974854 -153.15541016 82.24309082 -154.16113281 82.20532227 C-157 82 -157 82 -159.8046875 81.49072266 C-163.86470269 80.8672026 -167.8204669 80.83767024 -171.921875 80.83203125 C-172.78073303 80.82870285 -173.63959106 80.82537445 -174.5244751 80.82194519 C-176.343297 80.81689485 -178.16212812 80.81453628 -179.98095703 80.81469727 C-182.6997107 80.81253991 -185.41803833 80.79444564 -188.13671875 80.77539062 C-214.62245198 80.68784197 -241.06072089 84.10888667 -265 96 C-265.64646484 96.31839844 -266.29292969 96.63679687 -266.95898438 96.96484375 C-276.38827808 101.71397601 -284.28114436 107.8814998 -292 115 C-292.85851562 115.78761719 -293.71703125 116.57523438 -294.6015625 117.38671875 C-299.55455154 122.13264303 -303.45985567 127.12752529 -307 133 C-307.33 132.34 -307.66 131.68 -308 131 C-306.77294368 128.25042908 -305.48805483 125.64503936 -304.0625 123 C-303.44060791 121.84250244 -303.44060791 121.84250244 -302.80615234 120.66162109 C-287.13301183 92.15792951 -257.4173048 74.93873066 -227 66 C-226.28553711 65.78988281 -225.57107422 65.57976562 -224.83496094 65.36328125 C-214.26421636 62.33388853 -203.62926515 60.32542666 -192.75 58.75 C-191.62698486 58.58685303 -190.50396973 58.42370605 -189.34692383 58.25561523 C-174.17420179 56.18565628 -159.01660514 55.85531482 -143.73074341 55.61184692 C-108.73506534 55.0334469 -108.73506534 55.0334469 -74 51 C-72.82566406 50.81953125 -71.65132812 50.6390625 -70.44140625 50.453125 C-52.026905 47.25738087 -33.33702873 40.11853299 -19 28 C-18.07767578 27.29423828 -18.07767578 27.29423828 -17.13671875 26.57421875 C-8.35578492 19.66239722 -3.83306278 10.28038036 0 0 Z " fill="#121212" transform="translate(962,469)"/>
<path d="M0 0 C4.23596056 3.91011744 5.34694675 8.23636523 5.67578125 13.78979492 C5.89002325 25.01650775 4.43471738 35.64241392 2.47265625 46.671875 C-0.9642362 64.94722018 -0.9642362 64.94722018 0.47265625 83.359375 C-3.93165745 84.82747957 -8.22530886 84.62488381 -12.83984375 84.671875 C-14.2465332 84.71538086 -14.2465332 84.71538086 -15.68164062 84.75976562 C-21.48227286 84.81290743 -24.99279412 84.3604482 -29.52734375 80.359375 C-35.15561804 71.91696357 -30.80287556 57.64001129 -29.02734375 48.296875 C-25.3202835 32.38966348 -25.3202835 32.38966348 -28.33984375 17.046875 C-33.11908519 14.51668836 -37.2396333 14.45460547 -42.52734375 15.359375 C-49.02538415 17.7481993 -52.55751464 22.28158519 -55.52734375 28.359375 C-57.09342161 31.91092752 -57.92988764 35.12792313 -58.4609375 38.96875 C-59.26591189 44.54927624 -60.1095869 50.12009989 -61 55.6875 C-61.12917816 56.49521851 -61.25835632 57.30293701 -61.39144897 58.13513184 C-61.65616455 59.78790441 -61.92127354 61.44061402 -62.18676758 63.09326172 C-62.45888558 64.79189778 -62.72935388 66.49079883 -62.99829102 68.18994141 C-63.39084052 70.66892814 -63.78858508 73.14703069 -64.1875 75.625 C-64.30730728 76.38838684 -64.42711456 77.15177368 -64.55055237 77.93829346 C-65.41332713 83.24535838 -65.41332713 83.24535838 -66.52734375 84.359375 C-68.74589639 84.44721042 -70.96722871 84.46632109 -73.1875 84.45703125 C-74.1841996 84.45490883 -74.1841996 84.45490883 -75.20103455 84.45274353 C-77.33068274 84.44713018 -79.46022714 84.43457554 -81.58984375 84.421875 C-83.03059744 84.41686171 -84.47135278 84.41229851 -85.91210938 84.40820312 C-89.45055477 84.39715645 -92.98893914 84.37988292 -96.52734375 84.359375 C-94.47371254 70.84094259 -92.38589558 57.32790152 -90.22640991 43.82595825 C-89.9086956 41.83664596 -89.59360318 39.8469155 -89.27856445 37.85717773 C-88.34150136 32.02491831 -87.32247754 26.26280165 -85.97851562 20.51147461 C-84.92150442 15.46950829 -84.38075505 10.31629878 -83.75976562 5.20507812 C-83.64310547 4.34978516 -83.52644531 3.49449219 -83.40625 2.61328125 C-83.30900635 1.84314697 -83.2117627 1.0730127 -83.11157227 0.27954102 C-82.52734375 -1.640625 -82.52734375 -1.640625 -79.52734375 -3.640625 C-76.05258604 -4.55332947 -72.80897848 -4.75923105 -69.2265625 -4.73828125 C-68.25009766 -4.73505859 -67.27363281 -4.73183594 -66.26757812 -4.72851562 C-65.26017578 -4.72013672 -64.25277344 -4.71175781 -63.21484375 -4.703125 C-62.18810547 -4.69861328 -61.16136719 -4.69410156 -60.10351562 -4.68945312 C-57.57809987 -4.67770701 -55.05271423 -4.65977271 -52.52734375 -4.640625 C-52.85734375 -0.020625 -53.18734375 4.599375 -53.52734375 9.359375 C-52.66109375 8.34875 -51.79484375 7.338125 -50.90234375 6.296875 C-38.43283547 -6.24929009 -14.71683922 -11.3980076 0 0 Z " fill="#101010" transform="translate(1018.52734375,642.640625)"/>
<path d="M0 0 C4.06114178 3.4613951 6.02938353 6.41505271 6.71875 11.8203125 C7.10221349 19.31702373 5.87954129 25.05410686 1.375 31.125 C-5.60457834 38.76226938 -13.91577147 41.48817794 -23.625 44.125 C-24.85992188 44.49625 -26.09484375 44.8675 -27.3671875 45.25 C-32.57867174 46.53296301 -37.79056258 46.34100746 -43.125 46.25 C-44.13820313 46.24097656 -45.15140625 46.23195313 -46.1953125 46.22265625 C-48.67212801 46.19929007 -51.14843379 46.16653168 -53.625 46.125 C-53.33242296 47.71198015 -53.03288266 49.29767744 -52.73046875 50.8828125 C-52.56442139 51.76598145 -52.39837402 52.64915039 -52.22729492 53.55908203 C-51.19998507 57.93566353 -49.64520724 61.51276649 -46.01953125 64.40625 C-37.94542183 69.39686951 -28.55173009 68.96471798 -19.625 66.875 C-14.97096911 65.63114775 -10.69160965 64.0092212 -6.3671875 61.89453125 C-4.625 61.125 -4.625 61.125 -2.625 61.125 C-2.16292113 66.78546615 -3.07897713 70.69777983 -6.625 75.125 C-18.55487372 86.03956532 -36.81853649 85.82324289 -52.04248047 85.29541016 C-61.9262559 84.64321926 -70.58031984 79.97651957 -77.625 73.125 C-85.60764621 61.76387164 -86.12423104 49.23005331 -84.12890625 35.78125 C-83.45502862 33.1314261 -82.63787479 30.66338826 -81.625 28.125 C-81.16673828 26.90683594 -81.16673828 26.90683594 -80.69921875 25.6640625 C-76.01126976 14.85620918 -66.83964919 5.79138239 -56.625 0.125 C-55.66013672 -0.43767578 -55.66013672 -0.43767578 -54.67578125 -1.01171875 C-38.66370609 -9.74853055 -15.35270008 -10.53073291 0 0 Z " fill="#101010" transform="translate(1204.625,643.875)"/>
<path d="M0 0 C4.59465859 4.70952505 6.29731937 8.6937552 6.375 15.25 C6.19504923 23.72662834 4.04854676 28.26747582 -1.9375 34.1875 C-16.41051063 46.24834219 -36.16724483 46.48439073 -54 46 C-52.05783903 56.07860309 -52.05783903 56.07860309 -46 64 C-39.25699992 68.07389588 -31.74870436 69.34662015 -24.02392578 67.53710938 C-16.93219558 65.63410078 -9.95613878 63.34427354 -3 61 C-2.43386037 66.43494049 -3.4117372 69.45846116 -6.22265625 74.10546875 C-13.55755713 81.92398947 -26.46378708 84.88670885 -36.8046875 85.421875 C-38.82779662 85.46667427 -40.85140767 85.49281951 -42.875 85.5 C-43.82503906 85.50612305 -44.77507813 85.51224609 -45.75390625 85.51855469 C-57.01209443 85.31835678 -67.3265935 81.97169638 -75.8203125 74.37109375 C-84.0663658 65.44132247 -85.49264696 54.88528213 -85.27734375 43.140625 C-84.62104398 28.89141011 -76.13057165 15.54353521 -66 6 C-63.12956885 3.73001619 -60.17826951 1.80881766 -57 0 C-56.35417969 -0.37769531 -55.70835937 -0.75539063 -55.04296875 -1.14453125 C-38.66774846 -10.04918261 -15.85370438 -10.10455883 0 0 Z " fill="#111111" transform="translate(627,644)"/>
<path d="M0 0 C3.23423926 3.03782797 6.70235558 6.46270328 7.23828125 11.03125 C7.47775616 18.99694169 5.83659321 25.64087646 0.625 31.8125 C-0.24125 32.534375 -1.1075 33.25625 -2 34 C-2.804375 34.825 -3.60875 35.65 -4.4375 36.5 C-17.52689025 47.16667534 -37.14878073 46.29845392 -53 46 C-52.57312017 47.89825285 -52.13300518 49.79353183 -51.6875 51.6875 C-51.44386719 52.74324219 -51.20023438 53.79898438 -50.94921875 54.88671875 C-49.75112327 58.81627472 -48.53741263 61.92665237 -45.09765625 64.328125 C-44.42605469 64.63234375 -43.75445313 64.9365625 -43.0625 65.25 C-42.05896484 65.72179687 -42.05896484 65.72179687 -41.03515625 66.203125 C-27.83701681 71.37091856 -15.31627979 66.00129768 -3 61 C-1.54187117 66.20096908 -2.73496646 68.99119094 -5.22265625 73.62890625 C-8.30669094 77.74321187 -12.27215908 79.276308 -17 81 C-18.2065625 81.45826172 -18.2065625 81.45826172 -19.4375 81.92578125 C-33.7096846 87.01265786 -51.87636093 87.15995396 -65.703125 80.74609375 C-73.83197075 76.28009616 -80.1842884 70.00819747 -83.33984375 61.15625 C-86.36387569 46.69815644 -84.04951718 31.76366586 -76.39453125 19.11328125 C-75.93433594 18.41589844 -75.47414063 17.71851563 -75 17 C-74.50886719 16.25105469 -74.01773438 15.50210938 -73.51171875 14.73046875 C-65.7410443 3.84410622 -52.97679798 -4.21643076 -39.77734375 -6.72265625 C-25.82682308 -8.11574622 -12.08484982 -7.86539378 0 0 Z " fill="#101010" transform="translate(914,644)"/>
<path d="M0 0 C1.00224609 -0.01611328 2.00449219 -0.03222656 3.03710938 -0.04882812 C8.96334235 -0.05272953 13.18628433 0.52118059 18.4375 3.3125 C16.84789668 9.54690168 15.16149099 15.47537645 12.4375 21.3125 C11.0453125 21.065 11.0453125 21.065 9.625 20.8125 C1.8181338 19.73569087 -5.63797247 19.15778348 -12.5625 23.3125 C-19.39033225 29.82997624 -20.41583049 37.13914392 -21.5625 46.3125 C-12.9825 46.3125 -4.4025 46.3125 4.4375 46.3125 C2.02886955 59.55996746 2.02886955 59.55996746 -0.5625 62.3125 C-3.19799805 62.88012695 -3.19799805 62.88012695 -6.32421875 62.80078125 C-7.44248047 62.78466797 -8.56074219 62.76855469 -9.71289062 62.75195312 C-11.46375977 62.68911133 -11.46375977 62.68911133 -13.25 62.625 C-14.42884766 62.60244141 -15.60769531 62.57988281 -16.82226562 62.55664062 C-19.73694548 62.49763901 -22.64909161 62.41536341 -25.5625 62.3125 C-25.62074951 63.41126465 -25.62074951 63.41126465 -25.68017578 64.53222656 C-26.29615597 74.17120329 -27.79616445 83.55434912 -29.4375 93.0625 C-29.69713463 94.59366191 -29.95625107 96.12491178 -30.21484375 97.65625 C-30.85700333 101.44863592 -31.51101717 105.2388649 -32.16882324 109.02856445 C-32.57088255 111.3611318 -32.96418489 113.69506346 -33.35644531 116.02929688 C-33.61506671 117.54560152 -33.87384973 119.06187862 -34.1328125 120.578125 C-34.24704559 121.26815613 -34.36127869 121.95818726 -34.47897339 122.66912842 C-35.18930437 126.7842411 -36.22253345 130.29260034 -37.5625 134.3125 C-47.7925 134.3125 -58.0225 134.3125 -68.5625 134.3125 C-67.22748633 126.30241798 -65.8747415 118.29832013 -64.46875 110.30078125 C-64.18046326 108.66027046 -64.18046326 108.66027046 -63.88635254 106.98661804 C-63.48331487 104.69504199 -63.07995028 102.40352341 -62.67626953 100.11206055 C-62.06229826 96.62385385 -61.45106889 93.13517317 -60.83984375 89.64648438 C-60.44548213 87.40622013 -60.05095651 85.16598475 -59.65625 82.92578125 C-59.47598267 81.89431473 -59.29571533 80.86284821 -59.10998535 79.80012512 C-58.07226193 73.93150295 -56.89997001 68.12035081 -55.5625 62.3125 C-60.8425 62.3125 -66.1225 62.3125 -71.5625 62.3125 C-71.06591703 56.65145411 -70.01739316 52.43575529 -67.5625 47.3125 C-62.6125 46.9825 -57.6625 46.6525 -52.5625 46.3125 C-52.500625 44.91 -52.43875 43.5075 -52.375 42.0625 C-51.06378897 29.66718508 -44.61228286 19.78623056 -35.5546875 11.46875 C-24.75365491 2.89789013 -13.55245715 -0.04374583 0 0 Z " fill="#111111" transform="translate(711.5625,592.6875)"/>
<path d="M0 0 C-0.11470137 1.75070517 -0.24219028 3.50057536 -0.375 5.25 C-0.44460938 6.22453125 -0.51421875 7.1990625 -0.5859375 8.203125 C-0.98465249 10.89633189 -1.63507063 12.66963279 -3 15 C-6.58383952 14.38452845 -9.71348105 13.40793378 -13.0625 12 C-23.71586734 7.53510645 -33.11197861 8.46191955 -44 12 C-44.62884402 14.85398438 -45.08616435 17.1188796 -45 20 C-40.30468786 27.30381888 -29.75014475 30.2291022 -22.125 33.625 C-14.56416586 37.05286741 -7.82339987 41.35320027 -4 49 C-2.95851025 57.87827329 -5.29253592 64.85917258 -10.125 72.25 C-24.07783688 85.5961918 -41.64488541 85.94122778 -59.81640625 86.015625 C-67.91280742 85.65799256 -78.06517237 83.93482763 -84 78 C-84.23046875 75.5390625 -84.23046875 75.5390625 -84.1875 72.625 C-84.18105469 71.66851563 -84.17460938 70.71203125 -84.16796875 69.7265625 C-84.02057959 67.33405932 -83.67819373 65.28958203 -83 63 C-78.51369994 64.38040002 -74.31034861 66.14811333 -70.05078125 68.09765625 C-61.99016158 71.64432891 -49.7243879 71.33665102 -41.375 68.5 C-40.26125 68.005 -39.1475 67.51 -38 67 C-37.66767182 65.61328513 -37.38572029 64.21444332 -37.125 62.8125 C-36.96257812 62.03519531 -36.80015625 61.25789062 -36.6328125 60.45703125 C-37.10614932 57.28970297 -38.52928638 56.11482505 -41.03466797 54.22973633 C-44.8207219 51.8607483 -48.89290662 50.16791508 -53 48.4375 C-62.77956256 44.27399506 -70.98763719 40.11282498 -76.375 30.5625 C-78.07800817 23.58016651 -76.96293476 17.44168407 -74 11 C-67.91599695 1.87399542 -58.37584145 -2.35863044 -48 -5 C-32.30981438 -7.83060696 -14.43170477 -7.21585238 0 0 Z " fill="#101010" transform="translate(1114,643)"/>
<path d="M0 0 C0 3.00858966 -0.52205143 4.57698049 -1.5 7.375 C-6.04776763 23.98423828 -3.36284598 40.50152362 4.86328125 55.3671875 C9.20722827 62.20955695 14.46833825 68.10626584 20 74 C22.36702892 76.63814236 24.6838886 79.31717096 27 82 C27.78375 82.88171875 28.5675 83.7634375 29.375 84.671875 C43.20015307 100.60452092 51.16540429 117.74532708 51.25 139 C51.270625 140.26457031 51.29125 141.52914062 51.3125 142.83203125 C51.34613533 150.99700695 50.40963165 158.19322957 48 166 C47.67 166 47.34 166 47 166 C46.92265625 164.5459375 46.92265625 164.5459375 46.84375 163.0625 C45.83010373 149.68641041 41.41026449 136.77907606 31.1015625 127.64453125 C24.66854289 122.61051405 17.8777546 118.28946291 10.9375 114 C5.00242054 110.32498558 -0.71880308 106.59188407 -6 102 C-6.68320312 101.41089844 -7.36640625 100.82179688 -8.0703125 100.21484375 C-19.06466924 90.03565795 -24.32480638 76.88057908 -25.23828125 62.16015625 C-25.83191813 40.38640361 -18.20624961 20.52945208 -4 4 C-2.68379519 2.64975541 -1.35604269 1.31023043 0 0 Z " fill="#151613" transform="translate(619,340)"/>
<path d="M0 0 C0.66 0 1.32 0 2 0 C2.20753906 0.73863281 2.41507813 1.47726562 2.62890625 2.23828125 C8.19952146 20.58168781 19.57397036 30.85906741 36 40 C37.46795283 40.78259629 38.93812054 41.56104826 40.41015625 42.3359375 C56.00681539 50.59347643 68.73611504 59.88981132 74.39575195 77.41748047 C75.52546082 82.24578769 75.38978071 87.06639926 75.3125 92 C75.31572266 93.02867187 75.31894531 94.05734375 75.32226562 95.1171875 C75.27859054 101.35875439 74.74190176 106.99259322 73 113 C72.01 113.495 72.01 113.495 71 114 C70.93683594 113.36835937 70.87367188 112.73671875 70.80859375 112.0859375 C68.83265637 97.65119492 60.88425895 84.16155644 49.4765625 75.12109375 C43.92941161 70.91158402 38.18928512 67.07084491 32.25 63.4375 C16.89746862 53.77109135 6.04324455 39.4285149 1 22 C-0.04694676 17.16946718 -0.120255 12.5386179 -0.0625 7.625 C-0.05798828 6.88894531 -0.05347656 6.15289062 -0.04882812 5.39453125 C-0.03715142 3.59631842 -0.01922011 1.79814803 0 0 Z " fill="#131312" transform="translate(582,421)"/>
<path d="M0 0 C-0.98571543 3.94286171 -2.01124215 7.09203942 -4.125 10.5625 C-7.41993327 16.92940114 -7.1104415 24.81400985 -5.3046875 31.62109375 C-4.36590267 33.89705529 -3.29693228 35.9086967 -2 38 C-1.5875 38.68578125 -1.175 39.3715625 -0.75 40.078125 C4.8311129 48.38637261 12.79350237 52.81123451 21.9375 56.3125 C22.56897949 56.55500488 23.20045898 56.79750977 23.85107422 57.04736328 C35.03673068 61.05945552 46.43975946 61.38118137 58.1875 61.625 C59.72723323 61.66327842 61.26694732 61.70233546 62.80664062 61.7421875 C66.53758283 61.83708824 70.26867242 61.92149948 74 62 C74 62.66 74 63.32 74 64 C71.90821974 65.16210015 70.11804391 65.97651482 67.76171875 66.4453125 C64.59974765 67.08039015 61.58563514 67.99977831 58.5 68.9375 C38.86598324 74.55597514 18.22389584 75.67186919 -0.23828125 65.73828125 C-10.09318641 59.53540601 -16.89459261 51.30686793 -20 40 C-21.36120798 28.66158626 -18.73773394 19.49786777 -11.9765625 10.40625 C-3.42857143 0 -3.42857143 0 0 0 Z " fill="#DDDDDD" transform="translate(672,318)"/>
<path d="M0 0 C6.19027917 3.00134748 12.17175713 9.23981478 14.5625 15.76953125 C16.44275562 25.35547732 15.81671121 35.41654187 11 44 C2.95217104 55.85064924 -10.32936739 62.64396398 -24 66 C-39.80075938 68.94522971 -56.78154199 68.08037943 -72 63 C-71.67 62.34 -71.34 61.68 -71 61 C-70.27635254 60.9906543 -69.55270508 60.98130859 -68.80712891 60.97167969 C-44.92754672 60.58560941 -21.27965698 59.45218279 -3 42 C4.53731078 33.76540496 6.5425231 26.38828946 6.29296875 15.2890625 C5.79406389 9.68802394 4.23953358 5.83576848 0 2 C0 1.34 0 0.68 0 0 Z " fill="#DADADA" transform="translate(919,317)"/>
<path d="M0 0 C0.495 0.99 0.495 0.99 1 2 C-0.35231873 3.66816642 -1.70697067 5.33444142 -3.0625 7 C-3.8875 8.01578125 -4.7125 9.0315625 -5.5625 10.078125 C-7.49639959 12.39632515 -9.47961834 14.57068863 -11.5625 16.75 C-23.25891775 30.07847605 -28.21724312 48.15036169 -28.09765625 65.55859375 C-28.09553383 66.74232323 -28.09553383 66.74232323 -28.09336853 67.94996643 C-28.08781555 70.44585115 -28.07527208 72.94164285 -28.0625 75.4375 C-28.05747891 77.13997265 -28.05291707 78.84244673 -28.04882812 80.54492188 C-28.03786158 84.69664988 -28.02062991 88.84830922 -28 93 C-27.01 93.33 -26.02 93.66 -25 94 C-26.78881736 95.00508801 -28.58114696 96.00392736 -30.375 97 C-31.37273438 97.556875 -32.37046875 98.11375 -33.3984375 98.6875 C-36 100 -36 100 -38 100 C-38.05547487 88.44376311 -37.93193769 76.89657067 -37.68261719 65.34301758 C-37.6439476 63.47688224 -37.60916765 61.61066256 -37.578125 59.74438477 C-37.53221684 56.99730753 -37.4744047 54.25069997 -37.4140625 51.50390625 C-37.40251129 50.68185196 -37.39096008 49.85979767 -37.37905884 49.01283264 C-37.0226234 34.86733198 -32.04286271 25.43412597 -22.04003906 15.48583984 C-15.59674841 9.38864368 -7.94256945 3.97128472 0 0 Z " fill="#D7D7D7" transform="translate(739,385)"/>
<path d="M0 0 C3.125 1.4375 3.125 1.4375 5 4 C6.07186728 8.15452434 5.65741885 11.55090069 3.890625 15.4453125 C-0.25443276 22.1977453 -4.74129043 25.29054964 -12.3125 27.25 C-17.20551682 28.21173089 -22.03293737 28.18665371 -27 28 C-25.90679615 18.08577201 -22.88505571 10.13212087 -15.25 3.4375 C-10.35662163 -0.45295623 -6.1622185 -0.65781924 0 0 Z " fill="#F7F7F7" transform="translate(1179,652)"/>
<path d="M0 0 C2.6875 1.4375 2.6875 1.4375 4 4 C4.94965406 9.28947099 4.36360795 13.92516268 1.38671875 18.4375 C-3.22567401 23.63456226 -10.28564571 26.65285248 -17 28 C-20.6837875 28.21950029 -24.3156617 28.18593857 -28 28 C-26.47805252 17.32365198 -23.27166262 9.18634151 -14.76953125 2.27734375 C-10.27130058 -0.96972342 -5.36367142 -0.53874395 0 0 Z " fill="#F6F6F6" transform="translate(602,652)"/>
<path d="M0 0 C3.125 2.0625 3.125 2.0625 5 5 C5.75732895 10.2066365 4.87979123 13.63386491 2 18 C-3.56188225 24.52138826 -11.56009228 27.56026822 -19.99609375 28.2421875 C-22.34720297 28.24885731 -24.65703007 28.18660822 -27 28 C-25.90679615 18.08577201 -22.88505571 10.13212087 -15.25 3.4375 C-10.40528007 -0.41427057 -6.11937191 -0.83576979 0 0 Z " fill="#F7F7F7" transform="translate(889,652)"/>
<path d="M0 0 C0.66 0 1.32 0 2 0 C2.09038099 5.15171623 1.84681133 9.91913204 1 15 C0.34 15 -0.32 15 -1 15 C-1.33 14.01 -1.66 13.02 -2 12 C-2.66 12 -3.32 12 -4 12 C-2.66666667 8 -1.33333333 4 0 0 Z " fill="#1A1A1A" transform="translate(962,469)"/>
<path d="M0 0 C0.66 0 1.32 0 2 0 C2.99 3.96 3.98 7.92 5 12 C4.01 11.67 3.02 11.34 2 11 C1.67 12.65 1.34 14.3 1 16 C0.67 16 0.34 16 0 16 C0 10.72 0 5.44 0 0 Z " fill="#454646" transform="translate(582,421)"/>
<path d="M0 0 C7.26 0 14.52 0 22 0 C22 1.98 22 3.96 22 6 C21.34 5.01 20.68 4.02 20 3 C17.88418649 2.40166467 17.88418649 2.40166467 15.4296875 2.26953125 C14.53378906 2.18896484 13.63789062 2.10839844 12.71484375 2.02539062 C11.30912109 1.92000977 11.30912109 1.92000977 9.875 1.8125 C8.93011719 1.73064453 7.98523438 1.64878906 7.01171875 1.56445312 C4.67523326 1.36384579 2.33842824 1.1762523 0 1 C0 0.67 0 0.34 0 0 Z " fill="#262526" transform="translate(944,638)"/>
<path d="M0 0 C1.61294794 4.03236984 0.18420949 6.97284787 -1 11 C-1.27566968 13.63966722 -1.48427667 16.28721063 -1.625 18.9375 C-1.66367187 19.62134766 -1.70234375 20.30519531 -1.7421875 21.00976562 C-1.83522412 22.67279513 -1.91863787 24.33635847 -2 26 C-2.33 26 -2.66 26 -3 26 C-3.55353075 8.14350797 -3.55353075 8.14350797 0 0 Z " fill="#3A3A39" transform="translate(597,380)"/>
<path d="M0 0 C-5.94 3.465 -5.94 3.465 -12 7 C-12.33 6.34 -12.66 5.68 -13 5 C-13.99 4.34 -14.98 3.68 -16 3 C-13.89936424 2.30178583 -11.79434263 1.61675528 -9.6875 0.9375 C-8.51574219 0.55464844 -7.34398437 0.17179687 -6.13671875 -0.22265625 C-3 -1 -3 -1 0 0 Z " fill="#343434" transform="translate(742,384)"/>
<path d="M0 0 C2.1490452 0.42144002 4.29422788 0.86262049 6.4375 1.3125 C7.63246094 1.55613281 8.82742188 1.79976563 10.05859375 2.05078125 C11.02925781 2.36402344 11.99992188 2.67726563 13 3 C13.33 3.99 13.66 4.98 14 6 C12.328125 6.6796875 12.328125 6.6796875 10 7 C7.421875 5.8203125 7.421875 5.8203125 4.75 4.125 C3.85796875 3.57070313 2.9659375 3.01640625 2.046875 2.4453125 C1.37140625 1.96835937 0.6959375 1.49140625 0 1 C0 0.67 0 0.34 0 0 Z " fill="#232423" transform="translate(845,379)"/>
<path d="M0 0 C7.26 0 14.52 0 22 0 C22 0.33 22 0.66 22 1 C17.05 1.33 12.1 1.66 7 2 C7 2.33 7 2.66 7 3 C4.36 2.67 1.72 2.34 -1 2 C-0.67 1.34 -0.34 0.68 0 0 Z " fill="#E3E3E4" transform="translate(848,378)"/>
<path d="M0 0 C-1.39750048 3.15835107 -3.05198234 5.32272825 -5.5 7.75 C-6.41265625 8.67039062 -6.41265625 8.67039062 -7.34375 9.609375 C-9 11 -9 11 -11 11 C-9.60249952 7.84164893 -7.94801766 5.67727175 -5.5 3.25 C-4.8915625 2.63640625 -4.283125 2.0228125 -3.65625 1.390625 C-2 0 -2 0 0 0 Z " fill="#171718" transform="translate(1142,649)"/>
<path d="M0 0 C2.31 1.98 4.62 3.96 7 6 C6.01 6.495 6.01 6.495 5 7 C4.5316735 9.58605332 4.5316735 9.58605332 4.375 12.5625 C4.26285156 14.08037109 4.26285156 14.08037109 4.1484375 15.62890625 C4.09945312 16.41136719 4.05046875 17.19382812 4 18 C3.67 18 3.34 18 3 18 C2.86722656 17.03578125 2.73445312 16.0715625 2.59765625 15.078125 C2.33275391 13.18320312 2.33275391 13.18320312 2.0625 11.25 C1.88847656 9.99703125 1.71445312 8.7440625 1.53515625 7.453125 C1.03600896 3.88592488 1.03600896 3.88592488 0 0 Z " fill="#0E0E0E" transform="translate(932,420)"/>
<path d="M0 0 C0.66 0.99 1.32 1.98 2 3 C1.25 5.375 1.25 5.375 0 8 C-0.37125 8.928125 -0.7425 9.85625 -1.125 10.8125 C-1.41375 11.534375 -1.7025 12.25625 -2 13 C-2.66 13 -3.32 13 -4 13 C-3.27991594 8.39146203 -1.68704061 4.32762591 0 0 Z " fill="#373837" transform="translate(659,566)"/>
<path d="M0 0 C0.33 0 0.66 0 1 0 C1.06058594 0.73605469 1.12117187 1.47210937 1.18359375 2.23046875 C1.26738281 3.20628906 1.35117187 4.18210937 1.4375 5.1875 C1.51871094 6.15042969 1.59992187 7.11335937 1.68359375 8.10546875 C1.97666151 10.78649602 2.42703754 13.3662986 3 16 C1.68 15.67 0.36 15.34 -1 15 C-0.67 10.05 -0.34 5.1 0 0 Z " fill="#3F3E3F" transform="translate(527,710)"/>
<path d="M0 0 C0.66 0 1.32 0 2 0 C1.38545304 3.99455527 -0.70646737 6.74466336 -3 10 C-3.33 9.34 -3.66 8.68 -4 8 C-3.22265625 6.0546875 -3.22265625 6.0546875 -2.0625 3.875 C-1.49208984 2.78832031 -1.49208984 2.78832031 -0.91015625 1.6796875 C-0.60980469 1.12539063 -0.30945313 0.57109375 0 0 Z " fill="#3E3E3E" transform="translate(658,592)"/>
<path d="M0 0 C0.91058531 3.07322544 1.08886184 5.80097361 1 9 C0.01 9 -0.98 9 -2 9 C-1.125 2.25 -1.125 2.25 0 0 Z " fill="#1F2020" transform="translate(662,560)"/>
<path d="M0 0 C0.66 0 1.32 0 2 0 C2 2.64 2 5.28 2 8 C1.01 8 0.02 8 -1 8 C-2 6 -2 6 -1.0625 2.875 C-0.5365625 1.451875 -0.5365625 1.451875 0 0 Z " fill="#535354" transform="translate(962,469)"/>
<path d="M0 0 C0.99 0.33 1.98 0.66 3 1 C-0.465 3.97 -0.465 3.97 -4 7 C-3.04065919 3.16263678 -2.76390737 2.40339772 0 0 Z " fill="#161617" transform="translate(744,606)"/>
</svg>
