<?xml version="1.0" encoding="UTF-8"?>
<svg version="1.1" xmlns="http://www.w3.org/2000/svg" width="1024" height="1024">
<path d="M0 0 C337.92 0 675.84 0 1024 0 C1024 337.92 1024 675.84 1024 1024 C686.08 1024 348.16 1024 0 1024 C0 686.08 0 348.16 0 0 Z " fill="#FDFDFD" transform="translate(0,0)"/>
<path d="M0 0 C0.99 0.3403125 1.98 0.680625 3 1.03125 C19.49497929 7.25894626 32.40582616 19.79835743 41 35 C41.50660156 35.88816406 42.01320313 36.77632813 42.53515625 37.69140625 C43.71079376 39.78397553 44.8664641 41.88441456 46 44 C46.73863281 43.7834375 47.47726562 43.566875 48.23828125 43.34375 C61.23986178 39.77533654 70.40142114 40.11061202 82.1875 46.8125 C89.37011932 52.39898169 95.88949601 58.60440168 97.30273438 68.01611328 C98.32690405 78.63130309 97.07713166 86.98656194 91 96 C89.9171875 97.6396875 89.9171875 97.6396875 88.8125 99.3125 C74.33923562 113.14250819 57.54081718 115.56481903 38.375 115.26953125 C31.99136915 115.05068315 26.10169268 113.93412145 20 112 C24.10347606 115.6583258 28.30499547 117.66465852 33.3125 119.75 C34.05306641 120.06582031 34.79363281 120.38164062 35.55664062 120.70703125 C37.36812172 121.47837159 39.18366141 122.24016858 41 123 C41.84740831 146.61661785 41.84740831 146.61661785 37 154 C36.12021484 155.34384766 36.12021484 155.34384766 35.22265625 156.71484375 C19.62564231 177.88844368 -10.25442103 184.70593202 -34.6875 189.625 C-37.48362106 190.19786698 -40.27887196 190.77493132 -43.07421875 191.3515625 C-43.74234589 191.48846497 -44.41047302 191.62536743 -45.09884644 191.76641846 C-51.42537026 193.06933992 -57.71467366 194.51163689 -64 196 C-61.82131794 187.64183694 -59.14659915 179.73118206 -52.0703125 174.2109375 C-48.06180902 171.86634112 -43.66823884 170.27928347 -39.33984375 168.625 C-32.16608869 165.13461157 -27.81505518 158.65118644 -24.96972656 151.35986328 C-23.9433276 148.27910335 -23.01696866 145.18485105 -22.125 142.0625 C-21.78984375 140.9060498 -21.4546875 139.74959961 -21.109375 138.55810547 C-18.41172514 128.98575861 -16.11995569 119.33945998 -14 109.625 C-13.84629944 108.93834259 -13.69259888 108.25168518 -13.53424072 107.54421997 C-11.55601088 98.62721731 -10.57918968 90.15457267 -11 81 C-13.475 81.495 -13.475 81.495 -16 82 C-17.27490096 85.93619439 -18.54415496 89.8741887 -19.8125 93.8125 C-20.16892578 94.91271484 -20.52535156 96.01292969 -20.89257812 97.14648438 C-23.11408191 104.05556495 -25.13107933 110.98836679 -27 118 C-27.83579099 121.02626623 -28.69385149 124.04552205 -29.5625 127.0625 C-29.87477539 128.17915039 -29.87477539 128.17915039 -30.19335938 129.31835938 C-31.77004943 134.77004943 -31.77004943 134.77004943 -34 137 C-38.55555556 136.44444444 -38.55555556 136.44444444 -40 135 C-39.54309313 128.39769567 -37.76035337 122.46654254 -35.75 116.1875 C-33.10141075 107.73580658 -30.66597462 99.26746203 -28.51074219 90.67651367 C-27.09671218 85.09671218 -27.09671218 85.09671218 -26 84 C-25.92851801 82.64756083 -25.91600546 81.29165633 -25.9375 79.9375 C-25.9684375 77.9884375 -25.9684375 77.9884375 -26 76 C-27.65 75.67 -29.3 75.34 -31 75 C-33.35969325 77.87891317 -34.68911975 80.45303899 -35.85351562 83.98046875 C-36.18395874 84.96829346 -36.51440186 85.95611816 -36.8548584 86.97387695 C-37.20181763 88.03437256 -37.54877686 89.09486816 -37.90625 90.1875 C-38.45520935 91.82948364 -38.45520935 91.82948364 -39.01525879 93.50463867 C-40.18392092 97.00078135 -41.34309042 100.499952 -42.5 104 C-44.02281264 108.60703018 -45.55524133 113.21069101 -47.09375 117.8125 C-47.44070923 118.87299561 -47.78766846 119.93349121 -48.1451416 121.02612305 C-48.47558472 122.01394775 -48.80602783 123.00177246 -49.14648438 124.01953125 C-49.4327771 124.88682861 -49.71906982 125.75412598 -50.01403809 126.64770508 C-51.0449272 129.10718672 -52.31500843 130.94424788 -54 133 C-57.875 132.125 -57.875 132.125 -59 131 C-58.56451387 125.01539002 -57.13719404 119.87266177 -55.09375 114.2578125 C-54.50898005 112.59770363 -53.92434893 110.93754586 -53.33984375 109.27734375 C-52.42169946 106.70036321 -51.49990939 104.12474787 -50.57470703 101.55029297 C-49.67566613 99.03941044 -48.79046099 96.52394877 -47.90625 94.0078125 C-47.63018921 93.25331818 -47.35412842 92.49882385 -47.06970215 91.72146606 C-45.12868814 86.17554875 -44.36493388 80.85642454 -44 75 C-45.83700789 74.22757731 -45.83700789 74.22757731 -48 74 C-50.4666261 75.81718525 -51.59653708 77.89766721 -52.77416992 80.67919922 C-53.08871124 81.41275131 -53.40325256 82.14630341 -53.72732544 82.90208435 C-54.05836273 83.69494339 -54.38940002 84.48780243 -54.73046875 85.3046875 C-55.08245331 86.13190811 -55.43443787 86.95912872 -55.79708862 87.81141663 C-56.93596127 90.49568695 -58.06301321 93.18467392 -59.1875 95.875 C-59.56961639 96.78637726 -59.95173279 97.69775452 -60.34542847 98.63674927 C-62.23896141 103.15527476 -64.12422767 107.6771155 -66.00097656 112.20263672 C-67.60140102 116.05687165 -69.24140218 119.89236951 -70.8984375 123.72265625 C-76.88011789 137.88613171 -77.88356428 149.35801205 -73.69140625 164.32421875 C-71.18071595 174.04073205 -74.26042109 182.12436973 -78.14770508 191.01660156 C-79.03133089 193.00497129 -79.03133089 193.00497129 -79.7331543 195.13183594 C-81.01432888 198.40733819 -82.04498157 200.44147015 -85.13818359 202.25048828 C-87.83398235 203.31231242 -90.53450759 204.17736787 -93.3125 205 C-104.27699693 208.59561188 -114.8564416 212.75205736 -124 220 C-124.66 219.67 -125.32 219.34 -126 219 C-125.93216309 217.9797876 -125.86432617 216.9595752 -125.79443359 215.90844727 C-125.23652037 207.03065795 -124.90388534 198.17214847 -124.7890625 189.27734375 C-124.7747821 188.27128082 -124.76050171 187.2652179 -124.74578857 186.22866821 C-124.68823538 182.07606931 -124.63321064 177.92361347 -124.59863281 173.77075195 C-124.57094293 170.689298 -124.52515932 167.60852971 -124.4765625 164.52734375 C-124.47330963 163.60219467 -124.47005676 162.67704559 -124.46670532 161.72386169 C-124.25598169 150.50241209 -120.43627951 141.6537307 -112.65625 133.5625 C-105.63702239 126.95616813 -97.933084 121.44313793 -90 116 C-91.19625 116.433125 -92.3925 116.86625 -93.625 117.3125 C-112.93096865 123.56906391 -135.02009522 125.5934715 -153.6875 116.375 C-163.40564291 110.70140212 -169.65681027 103.32354871 -173.05859375 92.69140625 C-176.03301839 81.02820588 -174.2775442 71.85556407 -168.39453125 61.66796875 C-158.94288467 46.60646234 -142.24584097 37.92713941 -125.375 33.6875 C-110.36967185 31.17849221 -96.28239232 33.23920256 -82 38 C-81.61328125 36.67742187 -81.61328125 36.67742187 -81.21875 35.328125 C-75.35098491 19.30461263 -59.41203068 7.46347777 -44.5078125 0.328125 C-30.65069343 -5.0691774 -13.98249609 -5.04020208 0 0 Z " fill="#FDFCFB" transform="translate(572,268)"/>
<path d="M0 0 C1.17240234 -0.01998047 2.34480469 -0.03996094 3.55273438 -0.06054688 C15.16521238 -0.05413468 25.27891849 3.05908918 35.5 8.4375 C36.48129883 8.9325 36.48129883 8.9325 37.48242188 9.4375 C53.10521247 17.44437566 65.15744348 29.81960718 73.0625 45.4375 C73.0625 46.0975 73.0625 46.7575 73.0625 47.4375 C74.9496875 47.33308594 74.9496875 47.33308594 76.875 47.2265625 C95.32007358 46.52034036 109.77083925 51.54530863 124.125 63.4375 C134.49482675 73.13777888 142.4872118 87.05529495 143.0625 101.4375 C143.13984375 103.12359375 143.13984375 103.12359375 143.21875 104.84375 C143.64945075 122.50248061 138.09613257 137.55552643 126.5234375 150.96484375 C120.56428275 156.95237543 113.48741604 161.47754478 106.0625 165.4375 C106.30033203 166.20900391 106.30033203 166.20900391 106.54296875 166.99609375 C108.55474511 176.44993003 107.83197009 186.97136745 103.0625 195.4375 C88.66081734 216.11137426 59.35030884 221.05590359 36.1875 225.5 C35.52363281 225.62856384 34.85976563 225.75712769 34.17578125 225.8895874 C25.17410701 227.62374923 16.17673217 229.04675943 7.0625 230.0625 C-11.07734571 232.08917838 -28.65966723 235.45725967 -46.375 239.8125 C-47.12923248 239.99532532 -47.88346497 240.17815063 -48.66055298 240.36651611 C-63.66836822 244.02667947 -77.85857448 248.88929814 -91.5625 256.125 C-92.54178467 256.63973877 -93.52106934 257.15447754 -94.5300293 257.68481445 C-102.77622559 262.13491576 -109.92457172 267.25455924 -116.9375 273.4375 C-118.29875 274.61119141 -118.29875 274.61119141 -119.6875 275.80859375 C-125.33999757 280.78037896 -130.67342971 286.0589934 -135.9375 291.4375 C-136.9375 289.4375 -136.9375 289.4375 -136.38012695 287.74853516 C-136.06519287 287.08128418 -135.75025879 286.4140332 -135.42578125 285.7265625 C-135.08192383 284.98325684 -134.73806641 284.23995117 -134.38378906 283.47412109 C-134.00963867 282.67828613 -133.63548828 281.88245117 -133.25 281.0625 C-119.44761819 250.60063141 -115.3803303 213.64253632 -125.9375 181.4375 C-126.21190918 180.54981934 -126.48631836 179.66213867 -126.76904297 178.74755859 C-128.29046866 174.33726873 -129.17308424 171.98626194 -133.0390625 169.2109375 C-134.20179688 168.74945313 -135.36453125 168.28796875 -136.5625 167.8125 C-143.26682319 164.90767152 -148.51109448 161.31637632 -153.9375 156.4375 C-154.56011719 155.90769531 -155.18273437 155.37789062 -155.82421875 154.83203125 C-167.03184236 144.63183448 -173.35737109 129.52688724 -174.140625 114.5546875 C-174.52494613 93.97296157 -167.79021507 77.74174707 -153.4765625 62.8828125 C-143.34946011 53.11208908 -131.35307106 46.64659824 -117.9375 42.4375 C-117.14287354 42.16768311 -116.34824707 41.89786621 -115.52954102 41.61987305 C-109.19257219 39.71422027 -103.46915125 39.2664876 -96.91796875 39.49609375 C-95.72636139 39.5348185 -95.72636139 39.5348185 -94.51068115 39.57432556 C-91.20957766 39.69316644 -87.91179574 39.82733164 -84.61450195 40.02709961 C-74.94169105 40.94020523 -74.94169105 40.94020523 -66.41381836 37.38012695 C-64.63283382 34.81073945 -63.27574662 32.2579801 -61.9375 29.4375 C-54.5025405 19.34265013 -45.01856629 12.87097564 -34.0625 7.1875 C-33.43907715 6.85790283 -32.8156543 6.52830566 -32.17333984 6.1887207 C-21.85814842 1.04953089 -11.39502318 -0.06868233 0 0 Z M-54.17578125 45.16015625 C-58.97510572 51.22760576 -58.97510572 51.22760576 -60.9375 58.4375 C-61.80632812 58.16035156 -62.67515625 57.88320313 -63.5703125 57.59765625 C-64.72273438 57.23542969 -65.87515625 56.87320313 -67.0625 56.5 C-68.19945312 56.14035156 -69.33640625 55.78070313 -70.5078125 55.41015625 C-88.24977904 50.37855071 -107.64523284 53.20584271 -123.9375 61.4375 C-137.551486 69.27325769 -148.12398929 79.19292935 -152.9375 94.4375 C-154.60874613 104.7930742 -153.13997144 115.48043254 -147.01953125 124.15625 C-139.54873729 132.93608573 -131.25481352 138.96480965 -119.9375 141.4375 C-119.16680176 141.60805908 -118.39610352 141.77861816 -117.60205078 141.9543457 C-103.69497419 144.47607051 -89.26445292 142.66387164 -75.9375 138.4375 C-73.60744471 137.75885423 -71.27258749 137.098711 -68.9375 136.4375 C-69.60394531 136.91058594 -70.27039063 137.38367188 -70.95703125 137.87109375 C-90.74966156 151.30474052 -90.74966156 151.30474052 -102.46533203 171.4284668 C-103.15026956 175.79343841 -103.15520373 180.12650917 -103.21875 184.5390625 C-103.23715942 185.53014008 -103.25556885 186.52121765 -103.27453613 187.54232788 C-103.33312818 190.71565956 -103.38586384 193.88904806 -103.4375 197.0625 C-103.67874986 211.54200097 -104.0560591 225.98144141 -104.9375 240.4375 C-101.61945791 239.14726402 -98.78186164 237.77381267 -95.8125 235.8125 C-89.44460332 231.91144618 -82.60929247 229.19249626 -75.71875 226.3671875 C-74.94200928 226.04194092 -74.16526855 225.71669434 -73.36499023 225.3815918 C-70.9375 224.4375 -70.9375 224.4375 -68.27758789 223.65942383 C-64.49595714 222.46696749 -61.76497326 221.60185602 -59.41552734 218.29589844 C-58.20593921 215.69086478 -57.25857254 213.10727815 -56.375 210.375 C-56.04693359 209.46427734 -55.71886719 208.55355469 -55.38085938 207.61523438 C-54.52942444 205.2329721 -53.72193207 202.84248037 -52.9375 200.4375 C-52.6075 199.4475 -52.2775 198.4575 -51.9375 197.4375 C-51.39784188 191.9682725 -51.9000787 187.13994274 -53.4375 181.875 C-54.74751765 176.932373 -55.35994494 172.27675068 -55.5 167.1875 C-55.56380859 165.26164062 -55.56380859 165.26164062 -55.62890625 163.296875 C-55.03824024 156.01707695 -51.68152127 149.13030069 -48.9375 142.4375 C-48.6232608 141.66927917 -48.30902161 140.90105835 -47.98526001 140.10955811 C-45.63461395 134.38920445 -43.22782717 128.69327119 -40.8125 123 C-40.10259126 121.31847474 -39.39295478 119.63683451 -38.68359375 117.95507812 C-37.99504346 116.32541443 -37.30625013 114.69585339 -36.6171875 113.06640625 C-36.3066745 112.33184708 -35.9961615 111.5972879 -35.67623901 110.84046936 C-35.07608673 109.42630715 -34.47224197 108.01370542 -33.86444092 106.60281372 C-33.20125266 105.05362044 -32.55250629 103.49821309 -31.91339111 101.93893433 C-31.57088318 101.12369293 -31.22837524 100.30845154 -30.87548828 99.46850586 C-30.56862091 98.72410751 -30.26175354 97.97970917 -29.94558716 97.2127533 C-28.9375 95.4375 -28.9375 95.4375 -26.25 94.3125 C-23.9375 94.4375 -23.9375 94.4375 -22.9375 95.4375 C-22.97349051 102.42960375 -24.73378091 108.69396976 -27.09765625 115.20703125 C-27.40698593 116.09106125 -27.71631561 116.97509125 -28.03501892 117.88591003 C-29.01290543 120.67775296 -30.00505273 123.46419596 -31 126.25 C-31.99729621 129.05403761 -32.99118186 131.85909473 -33.97569275 134.66764832 C-34.5855988 136.40663893 -35.20291835 138.14305225 -35.82862854 139.87641907 C-37.88467205 145.51174734 -37.88467205 145.51174734 -37.9375 151.4375 C-37.2775 152.0975 -36.6175 152.7575 -35.9375 153.4375 C-33.88233731 153.41650008 -33.88233731 153.41650008 -31.9375 152.4375 C-30.70315938 150.72228778 -30.70315938 150.72228778 -29.91040039 148.52270508 C-29.5798465 147.70597321 -29.2492926 146.88924133 -28.90872192 146.04776001 C-27.30949447 141.74966977 -25.80783083 137.42923776 -24.37109375 133.07421875 C-23.71434945 131.11648387 -23.05744373 129.15880313 -22.40039062 127.20117188 C-21.38186958 124.14955363 -20.36576504 121.09716277 -19.3527832 118.04370117 C-18.36524608 115.07253763 -17.36869938 112.10451405 -16.37109375 109.13671875 C-16.07101913 108.22315109 -15.77094452 107.30958344 -15.46177673 106.36833191 C-15.03101585 105.0909893 -15.03101585 105.0909893 -14.59155273 103.7878418 C-14.21993263 102.66940132 -14.21993263 102.66940132 -13.84080505 101.52836609 C-12.83344396 99.19664312 -11.52942106 97.40725642 -9.9375 95.4375 C-8.2875 95.7675 -6.6375 96.0975 -4.9375 96.4375 C-4.75255705 101.8008455 -5.20074995 105.32523345 -6.9375 110.4375 C-8.7444355 116.17854784 -10.47316312 121.94436734 -12.21533203 127.70532227 C-12.7809097 129.57107662 -13.34927819 131.43598722 -13.92041016 133.30004883 C-14.74784178 136.00145368 -15.56625566 138.70544728 -16.3828125 141.41015625 C-16.63902374 142.24047867 -16.89523499 143.07080109 -17.15921021 143.92628479 C-18.90788139 149.57715093 -18.90788139 149.57715093 -18.9375 155.4375 C-18.2775 156.0975 -17.6175 156.7575 -16.9375 157.4375 C-14.33469432 157.11708603 -14.33469432 157.11708603 -11.9375 156.4375 C-11.76734375 155.91542969 -11.5971875 155.39335937 -11.421875 154.85546875 C-10.05915738 150.7165764 -8.62803745 146.62907899 -7.0625 142.5625 C-4.9105788 136.72040215 -3.40882362 130.75714342 -1.87475586 124.73168945 C0.07522507 117.16582365 2.47347253 109.80796542 5.0625 102.4375 C7.5375 101.9425 7.5375 101.9425 10.0625 101.4375 C10.672184 112.22165711 8.87678099 121.85623731 6.5 132.3125 C6.31987366 133.1223233 6.13974731 133.93214661 5.9541626 134.76651001 C3.72242269 144.79278622 1.35504965 154.77273002 -1.5625 164.625 C-1.81459229 165.49431152 -2.06668457 166.36362305 -2.32641602 167.25927734 C-5.31467032 176.78592617 -9.32977514 184.37072414 -18.28515625 189.21875 C-20.86399956 190.4037266 -23.45026404 191.36799659 -26.125 192.3125 C-32.82367877 194.89537614 -36.33837404 199.19866112 -39.4765625 205.5546875 C-41.95790723 210.81512419 -41.95790723 210.81512419 -42.9375 216.4375 C-42.009375 216.22996094 -41.08125 216.02242187 -40.125 215.80859375 C-39.47805176 215.66446045 -38.83110352 215.52032715 -38.16455078 215.37182617 C-36.63656593 215.03095255 -35.10891285 214.68858936 -33.58154297 214.3449707 C-28.8348113 213.28293089 -24.08300557 212.25486441 -19.31916809 211.27206421 C24.74302195 202.53641055 24.74302195 202.53641055 58.0625 174.4375 C64.02309139 165.31243734 62.43696208 153.87347017 62.0625 143.4375 C60.96550781 142.97859375 59.86851562 142.5196875 58.73828125 142.046875 C57.28367848 141.42749576 55.82926112 140.80768098 54.375 140.1875 C53.65376953 139.88714844 52.93253906 139.58679688 52.18945312 139.27734375 C47.95731297 137.4608087 44.54046219 135.53816846 41.0625 132.4375 C41.74570312 132.6540625 42.42890625 132.870625 43.1328125 133.09375 C62.47836007 138.43727721 82.10834211 136.36672498 99.87109375 127.3515625 C104.8973467 124.33704115 109.0354687 121.0508763 112.25 116.0625 C112.71792969 115.35351562 113.18585938 114.64453125 113.66796875 113.9140625 C119.01735132 104.41403855 120.03589871 93.94976176 117.25390625 83.359375 C112.7077253 73.35463077 104.16468171 66.34577064 94.0625 62.4375 C85.01832461 59.6546768 75.87605207 61.8534219 67.0625 64.4375 C66.27939453 62.91382813 66.27939453 62.91382813 65.48046875 61.359375 C60.40683859 51.76545271 54.84032742 43.99541861 47.0625 36.4375 C46.36125 35.75042969 45.66 35.06335938 44.9375 34.35546875 C30.41771328 20.91881128 12.73069363 16.79048947 -6.51953125 17.09765625 C-26.22289163 17.92825094 -41.7747356 30.84738754 -54.17578125 45.16015625 Z " fill="#F05505" transform="translate(550.9375,247.5625)"/>
<path d="M0 0 C0.47266289 7.32627475 -0.90133798 12.37384327 -4 19 C-7.13601139 18.44882224 -10.16660453 17.68894616 -13.22265625 16.80859375 C-26.30191844 13.06722216 -38.32756345 10.10686702 -51 17 C-53.65965165 19.31171496 -55.41820206 21.83640413 -57 25 C-57.37175073 30.57626101 -57.29199896 34.2677515 -54 39 C-47.26566197 45.04454725 -39.02804192 48.83630965 -31.01953125 52.88085938 C-19.46515511 58.92231526 -10.21917863 66.3424641 -6 79 C-5.32979014 93.01206206 -6.45328212 106.59152379 -16.37109375 117.56640625 C-33.5107712 132.6509665 -55.3107956 133.37597093 -77 132 C-85.55927996 130.93313471 -94.73154374 128.26845626 -101 122 C-101.09968672 119.89778307 -101.12968203 117.79207396 -101.125 115.6875 C-101.12757813 114.53636719 -101.13015625 113.38523437 -101.1328125 112.19921875 C-101.02438878 109.58748263 -100.77059738 107.47692016 -100 105 C-97.54583283 105.97297955 -95.10095367 106.95656447 -92.67578125 108 C-79.85958639 113.42305105 -64.4415139 115.810954 -51 111 C-48.1665257 109.48537267 -48.1665257 109.48537267 -46 108 C-45.34 108 -44.68 108 -44 108 C-43.690625 107.38125 -43.38125 106.7625 -43.0625 106.125 C-42.375 104.75 -41.6875 103.375 -41 102 C-40.82587793 100.06753048 -40.73294458 98.1272659 -40.6875 96.1875 C-40.65011719 95.14980469 -40.61273437 94.11210938 -40.57421875 93.04296875 C-41.12257277 89.1239983 -42.17184933 87.76113289 -45 85 C-47.5293233 83.215901 -50.17512964 81.69742861 -52.875 80.1875 C-53.626604 79.75373047 -54.37820801 79.31996094 -55.15258789 78.87304688 C-58.69852813 76.83331692 -62.26684796 74.84589022 -65.87890625 72.92578125 C-76.72048956 67.1107369 -85.89373453 60.34935318 -90.22265625 48.41015625 C-92.53374031 38.27158147 -92.47503118 27.09275091 -87 18 C-78.99953851 5.78663727 -67.46893637 -2.93926346 -53 -6 C-34.56414821 -8.7207094 -17.11664324 -7.62925733 0 0 Z " fill="#EE4E04" transform="translate(565,595)"/>
<path d="M0 0 C7.29241329 5.80416568 14.4366995 12.80227466 17 22 C18.38710711 36.02712069 14.38823342 46.40566055 6.15625 57.48046875 C-3.02118407 68.20410095 -16.79316593 73.51499776 -29.875 77.6875 C-30.7402832 77.97310791 -31.60556641 78.25871582 -32.49707031 78.55297852 C-51.94437575 84.45946625 -72.7799901 84.68265984 -92.9163208 85.53839111 C-97.65041779 85.74125035 -102.38389575 85.95781523 -107.11732483 86.17562866 C-109.61912042 86.29002719 -112.12110188 86.40045387 -114.62327576 86.5062561 C-120.15245758 86.75245975 -125.53737181 87.11482639 -131 88 C-133.436633 88.12278666 -135.87433287 88.22533366 -138.3125 88.3125 C-167.95386983 89.77258333 -196.89529691 96.84630979 -223 111 C-223.91265625 111.49242187 -224.8253125 111.98484375 -225.765625 112.4921875 C-242.52683154 122.06229575 -257.10526351 135.40912765 -267 152 C-268.78315998 146.65052007 -265.35029542 141.8688568 -263 137 C-251.51375084 114.18348008 -232.35263542 98.52750448 -210 87 C-209.35788574 86.6587207 -208.71577148 86.31744141 -208.05419922 85.96582031 C-177.75533008 69.97071132 -142.52951578 64.90957845 -108.93478394 60.7020874 C-95.25259077 58.97669832 -81.74774948 56.8343036 -68.25 54 C-67.49047028 53.84427521 -66.73094055 53.68855042 -65.94839478 53.52810669 C-44.4610318 49.08245552 -18.68500618 41.93728142 -5.3671875 23.203125 C-0.78764904 15.82352588 -0.37950075 8.58456879 0 0 Z " fill="#FA7E07" transform="translate(672,427)"/>
<path d="M0 0 C-0.59716632 12.234691 -2.32156473 24.26170285 -4.0625 36.375 C-4.34744483 38.38275016 -4.63195323 40.3905623 -4.91601562 42.3984375 C-5.60565372 47.26635343 -6.30117114 52.13339535 -7 57 C-6.34 57 -5.68 57 -5 57 C-4.76410156 56.41347656 -4.52820313 55.82695313 -4.28515625 55.22265625 C-0.90004015 49.36815455 6.99872734 45.2508043 13.390625 43.4375 C22.7721051 41.86455723 32.76408317 41.73517093 41 47 C45.84472125 51.26820953 48.67402983 55.79715359 49.3359375 62.30078125 C49.36598167 63.63774669 49.377488 64.97519934 49.375 66.3125 C49.37628906 67.06595703 49.37757813 67.81941406 49.37890625 68.59570312 C49.22683529 77.50567878 47.90376109 86.29342732 46.71566772 95.10995483 C45.02002697 107.76518452 43.60165611 120.32582499 46 133 C41.90130836 134.13577517 37.91670972 134.22075741 33.6875 134.25 C32.58631836 134.2809375 32.58631836 134.2809375 31.46289062 134.3125 C26.23033829 134.34964323 22.63841933 133.46048132 18 131 C13.62939248 125.64248111 14.42833517 118.5462952 15 112 C15.45021367 108.30538943 15.97634499 104.62232141 16.5 100.9375 C17.5831271 93.21918834 18.34522583 85.61038839 18.4375 77.8125 C18.45941406 76.98161865 18.48132813 76.1507373 18.50390625 75.29467773 C18.49163056 71.62156176 18.36257612 69.47425254 16.09765625 66.51171875 C12.23092448 63.72507965 9.79716265 63.46698193 5 64 C-2.9587294 67.37140621 -6.77649929 73.22932734 -10 81 C-11.12898627 85.57179479 -11.68714491 90.134587 -12.1875 94.8125 C-12.41928955 96.69727051 -12.41928955 96.69727051 -12.65576172 98.62011719 C-12.96975857 101.17680981 -13.27485766 103.73461181 -13.57080078 106.29345703 C-14.20676135 111.78558063 -14.90744729 117.26804422 -15.625 122.75 C-15.73610107 123.6778833 -15.84720215 124.6057666 -15.96166992 125.56176758 C-16.23874702 127.71784479 -16.60924823 129.86160019 -17 132 C-19.76617563 133.38308781 -22.01018 133.11210196 -25.1015625 133.09765625 C-26.31328125 133.09443359 -27.525 133.09121094 -28.7734375 133.08789062 C-30.04445312 133.07951172 -31.31546875 133.07113281 -32.625 133.0625 C-33.90375 133.05798828 -35.1825 133.05347656 -36.5 133.04882812 C-39.66671292 133.03701203 -42.83333356 133.02053815 -46 133 C-45.4715561 125.34989625 -44.79515042 117.7750176 -43.6875 110.1875 C-42.39041799 100.98964113 -41.20383966 91.78089566 -40.0625 82.5625 C-39.7204407 79.8072433 -39.37789994 77.05204664 -39.03515625 74.296875 C-38.94950912 73.60832428 -38.863862 72.91977356 -38.77561951 72.21035767 C-36.55689933 54.39771487 -34.24333362 36.59743151 -31.8125 18.8125 C-31.56209961 16.96748901 -31.56209961 16.96748901 -31.30664062 15.08520508 C-31.15001953 13.94978271 -30.99339844 12.81436035 -30.83203125 11.64453125 C-30.69514893 10.64784424 -30.5582666 9.65115723 -30.41723633 8.62426758 C-30.05647082 6.35518128 -29.69570507 4.18948905 -29 2 C-21.25916033 -3.26534272 -8.63540127 -1.84226816 0 0 Z " fill="#EE5004" transform="translate(245,591)"/>
<path d="M0 0 C1.11246094 -0.020625 2.22492188 -0.04125 3.37109375 -0.0625 C12.97287834 -0.10721145 21.50935634 1.55447712 30.375 5.25 C29.97222507 12.79673035 29.55308026 19.98973247 27.375 27.25 C24.0060257 26.63474405 20.87296056 25.75808573 17.625 24.6875 C5.6577265 21.40901617 -9.38236147 21.71244508 -20.37109375 27.76171875 C-32.71353285 35.92276689 -40.03879493 48.69465713 -43.625 62.9375 C-46.11595879 77.15061781 -46.78782278 93.18202219 -39.046875 105.828125 C-34.38559148 112.3371245 -29.16782646 116.2603162 -21.15234375 117.921875 C-8.32410154 119.58736549 1.59647036 117.56386014 13.52246094 112.91430664 C15.45212542 112.2223434 17.37977911 111.71568036 19.375 111.25 C19.1185918 113.64817079 18.8454516 116.04243728 18.5625 118.4375 C18.45711914 119.44780273 18.45711914 119.44780273 18.34960938 120.47851562 C17.82884528 124.7487812 17.03982968 127.84561896 14.375 131.25 C3.92880136 138.74271933 -9.46168598 139.81480221 -21.875 139.75 C-23.78599487 139.74141968 -23.78599487 139.74141968 -25.7355957 139.73266602 C-39.93617052 139.46387685 -51.59501443 136.72982543 -62.625 127.25 C-63.33011719 126.66605469 -64.03523438 126.08210937 -64.76171875 125.48046875 C-75.91004947 115.39388382 -80.20015225 101.63727508 -80.9375 87.03515625 C-81.64727037 64.30069572 -75.4436863 43.56162272 -60.375 26.125 C-43.89457714 8.58849608 -23.84906896 0.10828181 0 0 Z " fill="#F15204" transform="translate(170.625,587.75)"/>
<path d="M0 0 C0.33 0 0.66 0 1 0 C2.05318013 14.59824675 -3.27781932 30.04302453 -12.65234375 41.33984375 C-15.30777026 44.36285269 -18.11891937 47.19213069 -21 50 C-21.58394531 50.59296875 -22.16789062 51.1859375 -22.76953125 51.796875 C-36.34681629 64.58358395 -56.06673259 70.86561132 -74 74 C-74.96268799 74.18022705 -75.92537598 74.3604541 -76.91723633 74.54614258 C-86.89140403 76.2182498 -96.72127628 76.27194916 -106.8112793 76.20581055 C-109.66529424 76.18764137 -112.51898019 76.18530119 -115.37304688 76.18554688 C-124.91870636 76.16693141 -134.41497586 75.93008066 -143.94389343 75.37109375 C-174.96500425 73.60167071 -207.47046077 73.05092915 -237 84 C-237.66499512 84.24588867 -238.32999023 84.49177734 -239.01513672 84.74511719 C-257.43831839 91.76221434 -272.9344301 103.26162582 -285.59765625 118.33984375 C-287.28927359 120.34245481 -289.10961125 122.1852268 -291 124 C-284.13727405 101.70434965 -264.75789108 84.96156971 -245 74 C-244.40380859 73.6690332 -243.80761719 73.33806641 -243.19335938 72.99707031 C-210.95180568 55.35705795 -174.58308488 51.07289538 -138.37350464 50.03372192 C-132.69863262 49.86880307 -127.02519309 49.66356625 -121.3515625 49.4609375 C-119.71226021 49.40326958 -119.71226021 49.40326958 -118.0398407 49.34443665 C-89.16372295 48.30434467 -59.05765038 46.71987542 -33 33 C-31.97261719 32.46503906 -30.94523437 31.93007813 -29.88671875 31.37890625 C-16.63466023 24.08774826 -6.41868622 13.80686149 0 0 Z " fill="#EC4E05" transform="translate(695,475)"/>
<path d="M0 0 C1.89878906 -0.02126953 1.89878906 -0.02126953 3.8359375 -0.04296875 C9.24947 0.28630797 14.13365164 1.19015687 18.3125 4.8125 C18.85261719 5.25851562 19.39273438 5.70453125 19.94921875 6.1640625 C24.73581905 11.94368711 26.29647467 17.53882746 26.125 24.9375 C26.11726562 25.7838501 26.10953125 26.6302002 26.1015625 27.50219727 C25.87431983 36.34493534 24.43201756 44.99459936 23.05981445 53.71801758 C21.24893754 65.66096769 20.04826705 78.26865123 22.625 90.1875 C18.77141528 90.3628878 14.91886561 90.46871462 11.0625 90.5625 C9.97646484 90.61277344 8.89042969 90.66304687 7.77148438 90.71484375 C2.67187292 90.80784578 -1.39390192 90.83509326 -5.61328125 87.734375 C-8.65409824 84.57125569 -9.18171359 81.87210995 -9.14257812 77.56542969 C-9.09552734 76.73946289 -9.04847656 75.91349609 -9 75.0625 C-8.97615234 74.19012695 -8.95230469 73.31775391 -8.92773438 72.41894531 C-8.64852725 65.33977558 -7.62612028 58.42096851 -6.45703125 51.44262695 C-4.13085427 38.16186232 -4.13085427 38.16186232 -6.7109375 25.37109375 C-8.35852058 22.963356 -8.35852058 22.963356 -11.375 21.1875 C-15.93580396 20.73889633 -18.36149534 20.70101777 -22.5 22.6875 C-30.25617144 29.4319969 -33.36195273 36.43074292 -34.62890625 46.53125 C-34.78757423 47.73956482 -34.78757423 47.73956482 -34.94944763 48.97229004 C-35.17182688 50.67643292 -35.39100179 52.38099661 -35.60717773 54.0859375 C-35.93300384 56.652089 -36.26931693 59.21669068 -36.60742188 61.78125 C-37.6976425 70.15977293 -38.65393372 78.49355942 -39.14428711 86.93164062 C-39.375 89.1875 -39.375 89.1875 -40.375 90.1875 C-42.52058827 90.27525605 -44.66904421 90.29445219 -46.81640625 90.28515625 C-48.12158203 90.28193359 -49.42675781 90.27871094 -50.77148438 90.27539062 C-52.1601569 90.26703401 -53.54882877 90.25856905 -54.9375 90.25 C-56.33007656 90.24498666 -57.72265481 90.24042347 -59.11523438 90.23632812 C-62.5351987 90.22449434 -65.95507844 90.2080088 -69.375 90.1875 C-68.75339717 80.05517524 -67.74240503 70.00930602 -66.5 59.9375 C-66.41196106 59.2138324 -66.32392212 58.49016479 -66.23321533 57.74456787 C-65.1534051 48.88553215 -63.96670289 40.06520103 -62.38378906 31.2800293 C-61.27081054 24.98214321 -60.61304288 18.65367852 -60.02099609 12.28759766 C-59.7183783 9.09269154 -59.39384845 6.24404535 -58.375 3.1875 C-52.18571325 1.04396262 -46.37232934 0.9397307 -39.875 1.0625 C-38.9571875 1.07152344 -38.039375 1.08054687 -37.09375 1.08984375 C-34.85405162 1.11317394 -32.61448959 1.14903548 -30.375 1.1875 C-29.88 7.1275 -29.88 7.1275 -29.375 13.1875 C-28.240625 12.135625 -27.10625 11.08375 -25.9375 10 C-17.78876191 2.87707823 -10.80809658 0.05480779 0 0 Z " fill="#EA4B04" transform="translate(726.375,633.8125)"/>
<path d="M0 0 C1.0010376 -0.01474365 2.0020752 -0.0294873 3.03344727 -0.04467773 C13.38824546 0.09726196 23.40269636 3.072573 30.875 10.5625 C35.37989283 16.51353625 34.53815409 23.48634447 33.875 30.5625 C33.04844611 33.72603663 31.85791523 35.97816003 29.875 38.5625 C29.43542969 39.16320312 28.99585938 39.76390625 28.54296875 40.3828125 C21.1468138 49.03350513 8.1570786 52.82209266 -2.90234375 53.81079102 C-5.83070374 53.97737584 -8.75591989 54.09437237 -11.6875 54.1875 C-12.69619141 54.22617187 -13.70488281 54.26484375 -14.74414062 54.3046875 C-17.2042564 54.39796203 -19.66438366 54.48375516 -22.125 54.5625 C-21.83196931 55.98414341 -21.53252853 57.40446635 -21.23046875 58.82421875 C-21.06442139 59.61530029 -20.89837402 60.40638184 -20.72729492 61.22143555 C-19.41470672 66.32334405 -17.2455704 70.17703075 -12.625 72.9375 C-2.76222033 77.51664771 7.85714916 76.1553318 17.875 72.5625 C19.89581924 71.60526983 21.90620677 70.62261943 23.875 69.5625 C24.535 69.5625 25.195 69.5625 25.875 69.5625 C26.226605 73.95756251 26.24055521 77.58127287 24.6875 81.75 C16.49344111 89.94405889 4.09243441 92.809664 -7.13867188 92.88476562 C-8.7715918 92.87993164 -8.7715918 92.87993164 -10.4375 92.875 C-12.05301758 92.89916992 -12.05301758 92.89916992 -13.70117188 92.92382812 C-25.24496462 92.93082013 -34.4042581 90.36447635 -43.125 82.5625 C-49.52308812 74.93867289 -52.67470076 67.37962895 -52.5 57.5 C-52.48984863 56.66726563 -52.47969727 55.83453125 -52.46923828 54.9765625 C-52.03846906 37.5855074 -46.57549527 24.72199872 -34.125 12.5625 C-23.96469574 2.96353852 -13.65428847 0.13297252 0 0 Z " fill="#EB4B05" transform="translate(620.125,633.4375)"/>
<path d="M0 0 C4.70476291 3.70447098 7.37654838 7.56830706 8.54296875 13.45703125 C9.47656673 21.85941305 6.62472972 28.15857538 1.41796875 34.70703125 C-2.57625288 38.99996603 -7.07611853 41.27129616 -12.45703125 43.45703125 C-13.15441406 43.75351562 -13.85179687 44.05 -14.5703125 44.35546875 C-24.90336225 48.28630877 -36.50788736 48.86677052 -47.45703125 48.45703125 C-46.66546888 56.00416904 -45.49617236 61.5159158 -39.45703125 66.45703125 C-33.05874817 70.58925574 -25.86261304 70.18199873 -18.45703125 69.45703125 C-13.99842796 68.42251872 -9.75372556 67.0225821 -5.45703125 65.45703125 C-3.45842351 64.78620226 -1.45881137 64.11833361 0.54296875 63.45703125 C0.85177223 67.93468172 0.96827991 70.55324503 -0.95703125 74.64453125 C-7.59748992 82.11504725 -16.72774471 85.37385024 -26.45703125 86.45703125 C-30.06218833 86.64137978 -33.66010963 86.68734797 -37.26953125 86.70703125 C-38.20345703 86.72765625 -39.13738281 86.74828125 -40.09960938 86.76953125 C-51.28331254 86.83161982 -59.96487702 83.8051647 -68.45703125 76.45703125 C-76.94678428 67.35959063 -78.88831501 57.53594177 -78.6640625 45.36328125 C-77.91541372 31.23783265 -71.70900696 17.8031511 -61.91796875 7.64453125 C-45.85246568 -6.63591592 -19.05211858 -11.96436699 0 0 Z " fill="#EB4C05" transform="translate(379.45703125,639.54296875)"/>
<path d="M0 0 C1.31726074 0.00845947 1.31726074 0.00845947 2.66113281 0.01708984 C12.37642597 0.19779787 20.71047185 1.3966852 28.53125 7.51953125 C33.16382423 12.35214846 34.98208883 16.4569355 34.875 23.125 C34.86734619 23.83060059 34.85969238 24.53620117 34.85180664 25.26318359 C34.57578858 31.76943055 32.69125704 35.6927996 28.25 40.3125 C27.755 40.87195313 27.26 41.43140625 26.75 42.0078125 C16.11542351 52.58921611 -3.08209411 54.37415392 -17.36328125 54.38671875 C-18.82561101 54.36805549 -20.2879264 54.34562768 -21.75 54.3125 C-19.38899294 64.59454512 -19.38899294 64.59454512 -12.62890625 72.26171875 C-5.27572384 76.37399748 3.35494356 76.89485726 11.4765625 74.71484375 C15.08364047 73.51457913 18.58417513 72.11040908 22.08203125 70.625 C25.25 69.3125 25.25 69.3125 27.25 69.3125 C27.565109 74.5643167 27.1189708 77.86064877 24.25 82.3125 C20.66025357 85.5840065 17.23004224 87.33141843 12.6875 89 C11.57246094 89.41636719 10.45742188 89.83273437 9.30859375 90.26171875 C2.97584755 92.43733654 -2.7031119 92.53022968 -9.375 92.5625 C-10.41785156 92.583125 -11.46070313 92.60375 -12.53515625 92.625 C-24.27784581 92.68364015 -33.86831139 89.8416745 -42.50390625 81.6484375 C-51.59177798 71.67227756 -52.48692549 60.49497062 -51.92041016 47.49023438 C-50.87795793 34.16835204 -43.875958 21.21482455 -34.1484375 12.16015625 C-23.50393667 3.96007662 -13.36297995 -0.0897705 0 0 Z " fill="#EA4905" transform="translate(893.75,633.6875)"/>
<path d="M0 0 C1.03576172 0.00064453 2.07152344 0.00128906 3.13867188 0.00195312 C10.76464844 0.04654948 10.76464844 0.04654948 14.1875 1.1875 C13.64798934 7.87743219 12.30043829 13.82210728 10.1875 20.1875 C6.62750782 21.01645125 3.45966486 21.24517878 -0.1875 21.125 C-4.77583835 21.10649864 -8.54638584 21.31040977 -12.8125 23.1875 C-18.22449565 28.59949565 -19.88538086 33.56001463 -20.9375 41 C-21.22625 43.041875 -21.515 45.08375 -21.8125 47.1875 C-13.8925 47.1875 -5.9725 47.1875 2.1875 47.1875 C-0.32157608 60.98741842 -0.32157608 60.98741842 -2.8125 63.1875 C-6.56064899 63.78927069 -10.21690826 63.65475202 -14 63.5 C-15.03576172 63.47744141 -16.07152344 63.45488281 -17.13867188 63.43164062 C-19.69806404 63.37266846 -22.25455951 63.29042567 -24.8125 63.1875 C-24.76480469 64.46238281 -24.71710938 65.73726562 -24.66796875 67.05078125 C-24.67227943 75.23100573 -26.00555764 83.28900945 -27.125 91.375 C-27.3550787 93.07233799 -27.58448555 94.76976717 -27.81323242 96.46728516 C-28.26586926 99.82184649 -28.72150194 103.17597737 -29.1796875 106.52978516 C-30.02130858 112.70393383 -30.82526778 118.88279347 -31.625 125.0625 C-32.016875 128.07375 -32.40875 131.085 -32.8125 134.1875 C-42.7125 134.1875 -52.6125 134.1875 -62.8125 134.1875 C-61.6875 119.5625 -61.6875 119.5625 -60.96459961 114.38745117 C-60.80450912 113.22722946 -60.64441864 112.06700775 -60.47947693 110.87162781 C-60.30964798 109.67004532 -60.13981903 108.46846283 -59.96484375 107.23046875 C-59.78869034 105.96149246 -59.61253693 104.69251617 -59.43104553 103.38508606 C-58.9686333 100.05907031 -58.50285434 96.7335638 -58.03533936 93.40826416 C-57.55646149 89.99588802 -57.08215171 86.58287711 -56.60742188 83.16992188 C-55.67992279 76.50852969 -54.7475461 69.84783684 -53.8125 63.1875 C-58.4325 63.1875 -63.0525 63.1875 -67.8125 63.1875 C-68.00536332 57.69089543 -67.71553246 53.36797725 -65.8125 48.1875 C-63.11066945 46.83658472 -60.69441794 46.84891942 -57.6875 46.625 C-56.59179688 46.54121094 -55.49609375 46.45742188 -54.3671875 46.37109375 C-53.52414062 46.31050781 -52.68109375 46.24992188 -51.8125 46.1875 C-51.71453125 45.59324219 -51.6165625 44.99898437 -51.515625 44.38671875 C-48.74143928 29.00912033 -42.64267897 16.60049078 -29.8125 7.1875 C-20.09202638 1.25559607 -11.20833843 -0.13504022 0 0 Z " fill="#EE5004" transform="translate(460.8125,589.8125)"/>
<path d="M0 0 C1 1 1 1 1.1875 4.625 C1.15040203 8.73545466 0.29581353 12.11255942 -1 16 C-5.18596821 15.47675397 -8.37406931 13.90941217 -12.03515625 11.9375 C-16.40743151 9.85132493 -20.5555116 9.7788875 -25.375 9.6875 C-26.66148437 9.65011719 -27.94796875 9.61273437 -29.2734375 9.57421875 C-33.83012602 10.09484668 -36.75346781 11.75346781 -40 15 C-40.4512072 18.91046241 -40.62952603 21.14754604 -38.24609375 24.375 C-33.10813356 29.17067226 -25.70619081 31.45148659 -19.34570312 34.1875 C-12.00860926 37.51656945 -6.4800919 41.16085606 -2 48 C0.28652421 55.13499858 -0.40782895 61.50437361 -3.5625 68.25 C-8.84639005 77.90207082 -16.62961379 82.53257677 -26.99609375 85.5859375 C-33.14071108 87.21636107 -38.97914318 87.49807824 -45.3125 87.4375 C-46.4046582 87.43137695 -47.49681641 87.42525391 -48.62207031 87.41894531 C-58.68581609 87.22466451 -69.49827905 86.51526196 -77 79 C-77.5234375 76.59765625 -77.5234375 76.59765625 -77.375 74.0625 C-77.33117187 73.18980469 -77.28734375 72.31710937 -77.2421875 71.41796875 C-76.98934174 68.89358929 -76.65440667 66.45402502 -76 64 C-72.14340838 65.44622186 -68.52237006 67.21317497 -64.8671875 69.09765625 C-60.00947651 71.44521114 -55.47034413 71.25585764 -50.1875 71.3125 C-49.29740234 71.34150391 -48.40730469 71.37050781 -47.49023438 71.40039062 C-41.66556791 71.45652158 -38.44269801 70.85606156 -34 67 C-32.57958179 64.15916359 -32.68547728 62.14522722 -33 59 C-35.68245081 55.78353026 -38.38201071 54.11099799 -42.17578125 52.4140625 C-43.66561523 51.72957031 -43.66561523 51.72957031 -45.18554688 51.03125 C-47.25751361 50.09944734 -49.33042079 49.16973284 -51.40429688 48.2421875 C-58.85233065 44.81426245 -66.41955902 40.86604112 -70.33984375 33.24609375 C-72.23208162 26.80800632 -72.23412872 18.8423848 -69.5625 12.625 C-64.15175409 3.82075491 -55.63432259 -0.97058412 -46 -4 C-31.220443 -7.41915125 -13.73147233 -6.54390478 0 0 Z " fill="#EA4905" transform="translate(835,639)"/>
<path d="M0 0 C0.66 0 1.32 0 2 0 C1.84136475 0.8669751 1.68272949 1.7339502 1.51928711 2.62719727 C-0.84184137 17.96287659 -0.89604957 34.35250691 7 48 C7.33741211 48.59554687 7.67482422 49.19109375 8.02246094 49.8046875 C12.76195006 58.05636003 18.4821011 65.07789032 25 72 C41.85220227 90.22570236 52.84967465 109.0415772 52.26171875 134.6328125 C52.04374939 139.45026738 51.39332458 144.17996206 50.625 148.9375 C50.49907471 149.72519775 50.37314941 150.51289551 50.2434082 151.32446289 C49.90423188 153.23124669 49.46125424 155.11901367 49 157 C48.34 157.33 47.68 157.66 47 158 C46.88785156 156.24236328 46.88785156 156.24236328 46.7734375 154.44921875 C45.60465111 139.40410018 41.16513904 129.54787932 30 119 C25.77046761 115.58631649 21.21449402 112.75608891 16.60546875 109.88671875 C0.01627219 99.52045092 -12.61686593 87.27209647 -17.75 67.875 C-22.71802645 44.21511712 -14.18831722 21.51027738 -1.4453125 1.7734375 C-0.96835937 1.18820312 -0.49140625 0.60296875 0 0 Z " fill="#FB7C07" transform="translate(365,351)"/>
<path d="M0 0 C2.21382851 2.84260821 4.07683668 5.75494364 5.875 8.875 C13.02511183 20.76292865 22.96810035 27.50745214 35 34 C45.91878041 39.90940254 56.35533543 46.14940414 63 57 C63.5053125 57.81210937 64.010625 58.62421875 64.53125 59.4609375 C70.74011679 71.49924034 69.24722166 87.23281121 66 100 C63.7525931 97.22714304 62.38365523 94.72860417 61.1875 91.375 C55.43513705 76.66015396 45.87702505 66.56345997 32.90283203 57.98901367 C27.09665049 54.14277982 21.93717158 49.92829177 17 45 C16.28328125 44.29488281 15.5665625 43.58976562 14.828125 42.86328125 C5.13872327 32.7185505 -0.14208089 19.80158542 -0.1875 5.8125 C-0.14012339 3.87457122 -0.08313443 1.93672434 0 0 Z " fill="#F86706" transform="translate(336,432)"/>
<path d="M0 0 C0 3.38849114 -0.60207067 4.25465529 -2.4375 7 C-6.00635251 12.36853027 -6.18248707 16.54132229 -6.1875 22.8125 C-6.19974609 23.60720703 -6.21199219 24.40191406 -6.22460938 25.22070312 C-6.24797835 34.63839898 -2.80561952 41.64407692 3 49 C6.11816616 51.75818275 9.40238681 53.9180744 13 56 C13.63550781 56.38671875 14.27101563 56.7734375 14.92578125 57.171875 C27.54090154 64.19528244 41.92258513 65.07067737 56 65.5625 C57.15628906 65.60568359 58.31257813 65.64886719 59.50390625 65.69335938 C62.33583854 65.79867917 65.16784747 65.90081087 68 66 C67.505 67.485 67.505 67.485 67 69 C66.33871094 69.1134375 65.67742187 69.226875 64.99609375 69.34375 C60.55956926 70.31550504 56.28316395 71.77429283 51.97070312 73.18359375 C35.31807266 78.51874929 15.05696267 78.15004329 -0.6875 70.375 C-10.40564291 64.70140212 -16.65681027 57.32354871 -20.05859375 46.69140625 C-23.030685 35.0373555 -21.26543785 25.89049915 -15.43359375 15.69140625 C-11.45694124 9.33824214 -6.23471141 4.15647427 0 0 Z " fill="#FDE1AA" transform="translate(419,314)"/>
<path d="M0 0 C7.14700744 3.68179171 12.76335788 9.56562303 16.109375 16.87109375 C18.7196866 26.04153055 18.46349272 36.12539855 14.3125 44.75 C13.25545964 46.52886191 12.15676657 48.28431497 11 50 C10.278125 51.093125 9.55625 52.18625 8.8125 53.3125 C-5.66439711 67.14597946 -22.4730562 69.5715702 -41.64453125 69.265625 C-48.06023893 69.04474344 -53.84197357 67.81450244 -60 66 C-61.66323909 65.64996481 -63.32906345 65.31122326 -65 65 C-65 64.34 -65 63.68 -65 63 C-63.93265625 62.97421875 -62.8653125 62.9484375 -61.765625 62.921875 C-40.39938378 62.19632064 -18.64800214 58.79937733 -2.44921875 43.5390625 C4.91663991 35.28382771 7.36192158 27.08086714 7.2890625 16.2734375 C6.83208377 11.09846221 5.1057924 7.04045755 1.36328125 3.4140625 C0 2 0 2 0 0 Z " fill="#FCE2AB" transform="translate(652,314)"/>
<path d="M0 0 C0 3 0 3 -1.43359375 4.62109375 C-2.09488281 5.22050781 -2.75617188 5.81992187 -3.4375 6.4375 C-8.6533266 11.47792713 -12.88048927 17.04278931 -17 23 C-17.56976563 23.81726563 -18.13953125 24.63453125 -18.7265625 25.4765625 C-31.91158771 46.77544937 -28.52503003 74.08609378 -28 98 C-27.34 98.33 -26.68 98.66 -26 99 C-27.43294498 99.84114171 -28.87154405 100.67265687 -30.3125 101.5 C-31.51326172 102.19609375 -31.51326172 102.19609375 -32.73828125 102.90625 C-35 104 -35 104 -38 104 C-37.89824463 102.4696814 -37.89824463 102.4696814 -37.79443359 100.90844727 C-37.23652037 92.03065795 -36.90388534 83.17214847 -36.7890625 74.27734375 C-36.7747821 73.27128082 -36.76050171 72.2652179 -36.74578857 71.22866821 C-36.68823538 67.07606931 -36.63321064 62.92361347 -36.59863281 58.77075195 C-36.57094293 55.689298 -36.52515932 52.60852971 -36.4765625 49.52734375 C-36.47330963 48.60219467 -36.47005676 47.67704559 -36.46670532 46.72386169 C-36.25598169 35.50241209 -32.43627951 26.6537307 -24.65625 18.5625 C-17.39825193 11.731443 -8.96676044 4.48338022 0 0 Z " fill="#FCE2AB" transform="translate(484,383)"/>
<path d="M0 0 C4.56944444 2.13888889 4.56944444 2.13888889 6 5 C6.59057744 10.67862925 6.29370905 15.16922672 3 20 C-2.11403331 25.23579601 -7.67963422 27.74323408 -15.0234375 28.1796875 C-17.69007752 28.18654262 -20.33706033 28.13439135 -23 28 C-22.95988053 18.93299878 -20.26730823 10.71603549 -14.10546875 3.90625 C-9.43812183 0.00298552 -5.99636588 -0.88470972 0 0 Z " fill="#FDFAF7" transform="translate(355,649)"/>
<path d="M0 0 C3.0625 2 3.0625 2 5 5 C5.7983788 10.41123412 5.06242504 14.39706369 2.38671875 19.17578125 C-1.57038575 24.38132436 -7.42613829 26.56473745 -13.6796875 27.73046875 C-17.47951698 28.17186308 -21.17803351 28.12133227 -25 28 C-23.67019333 17.56002524 -21.08510325 8.7384511 -12.55078125 2.05859375 C-8.58750227 -0.64681835 -4.67064258 -0.69254355 0 0 Z " fill="#FCF8F5" transform="translate(623,649)"/>
<path d="M0 0 C3.0625 1.375 3.0625 1.375 5 4 C6.03494067 9.86801314 5.42857828 15.03447284 2 20 C-2.75921172 25.05666246 -10.10531527 27.66853747 -16.9375 28.25 C-19.30649059 28.25 -21.6387742 28.18439073 -24 28 C-23.95980349 18.91558924 -21.24141967 10.7760524 -15.140625 3.90625 C-10.4599151 -0.06299199 -6.03452734 -1.28491837 0 0 Z " fill="#FCF8F5" transform="translate(897,649)"/>
<path d="M0 0 C0.33 0 0.66 0 1 0 C1.02911321 3.0833134 1.04683682 6.16659125 1.0625 9.25 C1.07087891 10.12269531 1.07925781 10.99539063 1.08789062 11.89453125 C1.09111328 12.73886719 1.09433594 13.58320312 1.09765625 14.453125 C1.10289307 15.22817383 1.10812988 16.00322266 1.11352539 16.80175781 C1 19 1 19 0 23 C8.25 23.33 16.5 23.66 25 24 C25 21.69 25 19.38 25 17 C25.33 17 25.66 17 26 17 C26 19.64 26 22.28 26 25 C23.23382437 26.38308781 20.98982 26.11210196 17.8984375 26.09765625 C16.68671875 26.09443359 15.475 26.09121094 14.2265625 26.08789062 C12.95554688 26.07951172 11.68453125 26.07113281 10.375 26.0625 C9.09625 26.05798828 7.8175 26.05347656 6.5 26.04882812 C3.33328708 26.03701203 0.16666644 26.02053815 -3 26 C-2.04797836 12.42440205 -2.04797836 12.42440205 -0.9375 5.6875 C-0.67259766 4.05361328 -0.67259766 4.05361328 -0.40234375 2.38671875 C-0.20318359 1.20529297 -0.20318359 1.20529297 0 0 Z " fill="#DF4D20" transform="translate(202,698)"/>
<path d="M0 0 C3.17218843 3.62535821 4.42902597 7.51150278 6 12 C6.66 12 7.32 12 8 12 C7.88658363 14.31309705 7.75896193 16.62550185 7.625 18.9375 C7.55539062 20.22527344 7.48578125 21.51304687 7.4140625 22.83984375 C7.27742188 23.88269531 7.14078125 24.92554688 7 26 C6.34 26.33 5.68 26.66 5 27 C4.89042969 25.77023437 4.78085937 24.54046875 4.66796875 23.2734375 C4.50843514 21.64056405 4.34824407 20.00775474 4.1875 18.375 C4.08211914 17.16263672 4.08211914 17.16263672 3.97460938 15.92578125 C3.47023012 10.96268936 2.43001454 7.43394434 0 3 C0 2.01 0 1.02 0 0 Z " fill="#ED7323" transform="translate(407,482)"/>
<path d="M0 0 C1.32 0.33 2.64 0.66 4 1 C2.43632643 4.52238047 0.30504111 7.27123994 -2.125 10.25 C-2.84945313 11.14203125 -3.57390625 12.0340625 -4.3203125 12.953125 C-4.87460937 13.62859375 -5.42890625 14.3040625 -6 15 C-6.33 14.34 -6.66 13.68 -7 13 C-5.92325298 10.71741367 -4.80453884 8.5643566 -3.5625 6.375 C-3.22412109 5.76398437 -2.88574219 5.15296875 -2.53710938 4.5234375 C-1.69853808 3.011647 -0.85017423 1.50529601 0 0 Z " fill="#E55623" transform="translate(411,584)"/>
<path d="M0 0 C0 3 0 3 -1.19335938 4.53393555 C-1.73798828 5.062854 -2.28261719 5.59177246 -2.84375 6.13671875 C-3.72353516 7.00200195 -3.72353516 7.00200195 -4.62109375 7.88476562 C-5.24113281 8.47966797 -5.86117188 9.07457031 -6.5 9.6875 C-7.12003906 10.29400391 -7.74007813 10.90050781 -8.37890625 11.52539062 C-9.91264707 13.02373743 -11.45548198 14.51276493 -13 16 C-13.66 15.67 -14.32 15.34 -15 15 C-10.28109462 9.59947495 -5.69641143 4.38185495 0 0 Z " fill="#EC5B19" transform="translate(405,304)"/>
<path d="M0 0 C0 3 0 3 -2.625 5.91796875 C-3.74249406 7.01550756 -4.86785643 8.10507895 -6 9.1875 C-6.57234375 9.74630859 -7.1446875 10.30511719 -7.734375 10.88085938 C-9.14962788 12.26073093 -10.57397155 13.63126734 -12 15 C-12.66 14.67 -13.32 14.34 -14 14 C-9.67106815 8.81580806 -5.23435005 4.27293882 0 0 Z " fill="#F1651B" transform="translate(121,604)"/>
<path d="M0 0 C-2.12390958 1.48075386 -4.24906405 2.95966056 -6.375 4.4375 C-6.97828125 4.85837891 -7.5815625 5.27925781 -8.203125 5.71289062 C-12.7734375 8.88671875 -12.7734375 8.88671875 -15 10 C-15 9.01 -15 8.02 -15 7 C-14.34 6.67 -13.68 6.34 -13 6 C-13.99 5.34 -14.98 4.68 -16 4 C-13.71144298 3.13656269 -11.4198072 2.2840189 -9.125 1.4375 C-8.47402344 1.19064453 -7.82304687 0.94378906 -7.15234375 0.68945312 C-2.2265625 -1.11328125 -2.2265625 -1.11328125 0 0 Z " fill="#E76626" transform="translate(485,383)"/>
<path d="M0 0 C0 3 0 3 -1.19335938 4.53393555 C-1.73798828 5.062854 -2.28261719 5.59177246 -2.84375 6.13671875 C-3.72353516 7.00200195 -3.72353516 7.00200195 -4.62109375 7.88476562 C-5.24113281 8.47966797 -5.86117188 9.07457031 -6.5 9.6875 C-7.12003906 10.29400391 -7.74007813 10.90050781 -8.37890625 11.52539062 C-9.91264707 13.02373743 -11.45548198 14.51276493 -13 16 C-13.66 15.67 -14.32 15.34 -15 15 C-13.25420935 13.0585604 -11.50362507 11.12184216 -9.75 9.1875 C-9.25886719 8.64029297 -8.76773437 8.09308594 -8.26171875 7.52929688 C-5.68270045 4.69237675 -3.19370806 2.16715904 0 0 Z " fill="#EA6122" transform="translate(503,263)"/>
<path d="M0 0 C0.33 0 0.66 0 1 0 C1.02895976 3.12498063 1.04678483 6.2499269 1.0625 9.375 C1.07087891 10.26445313 1.07925781 11.15390625 1.08789062 12.0703125 C1.09111328 12.92109375 1.09433594 13.771875 1.09765625 14.6484375 C1.10289307 15.43395996 1.10812988 16.21948242 1.11352539 17.02880859 C1 19 1 19 0 21 C-0.66 21 -1.32 21 -2 21 C-1.85845864 18.43719792 -1.71191438 15.87484515 -1.5625 13.3125 C-1.52318359 12.59126953 -1.48386719 11.87003906 -1.44335938 11.12695312 C-1.21814322 7.33292718 -0.87160695 3.71348508 0 0 Z " fill="#DF6B3A" transform="translate(202,698)"/>
<path d="M0 0 C0.33 0 0.66 0 1 0 C1.2224897 2.89537277 1.42843154 5.79034899 1.625 8.6875 C1.68945312 9.50412109 1.75390625 10.32074219 1.8203125 11.16210938 C2.11276016 15.67677015 2.0982123 18.86528752 0 23 C-0.36871088 24.65919896 -0.71281674 26.3247643 -1 28 C-1.33 28 -1.66 28 -2 28 C-2.12526096 20.60960334 -2.12526096 20.60960334 -1.53125 17.71875 C-0.84859202 14.22514741 -0.64449914 10.73363279 -0.4375 7.1875 C-0.39431641 6.49462891 -0.35113281 5.80175781 -0.30664062 5.08789062 C-0.20138547 3.39211314 -0.10027137 1.69607948 0 0 Z " fill="#DF5D21" transform="translate(722,663)"/>
<path d="M0 0 C0.33 0.66 0.66 1.32 1 2 C1.99 2.33 2.98 2.66 4 3 C1.69 6.3 -0.62 9.6 -3 13 C-4.23593891 9.29218328 -3.5678132 8.32489747 -2.0625 4.8125 C-1.68222656 3.91144531 -1.30195313 3.01039063 -0.91015625 2.08203125 C-0.60980469 1.39496094 -0.30945313 0.70789063 0 0 Z " fill="#F69A37" transform="translate(408,566)"/>
<path d="M0 0 C0.66 0.33 1.32 0.66 2 1 C-2.29 5.29 -6.58 9.58 -11 14 C-11.66 13.34 -12.32 12.68 -13 12 C-8.71 8.04 -4.42 4.08 0 0 Z " fill="#E75C21" transform="translate(433,560)"/>
<path d="M0 0 C0.66 0.33 1.32 0.66 2 1 C-1.96 4.96 -5.92 8.92 -10 13 C-10 9.28115772 -9.1259934 8.63852271 -6.6875 5.9375 C-5.76517578 4.89916016 -5.76517578 4.89916016 -4.82421875 3.83984375 C-3 2 -3 2 0 0 Z " fill="#E95E1D" transform="translate(777,640)"/>
<path d="M0 0 C0.33 0 0.66 0 1 0 C0.46647066 5.86882273 -0.40085109 11.64619754 -3 17 C-3.99 17.66 -4.98 18.32 -6 19 C-4.12275039 12.62267685 -2.14328358 6.29304541 0 0 Z " fill="#DA5526" transform="translate(426,507)"/>
<path d="M0 0 C0.66 0.66 1.32 1.32 2 2 C-0.97 4.97 -3.94 7.94 -7 11 C-7.66 10.67 -8.32 10.34 -9 10 C-7.8758824 8.70756532 -6.75067408 7.41607925 -5.625 6.125 C-4.99851562 5.40570313 -4.37203125 4.68640625 -3.7265625 3.9453125 C-2.52573166 2.5923402 -1.2791655 1.2791655 0 0 Z " fill="#FAD596" transform="translate(463,398)"/>
<path d="M0 0 C4.29 0.66 8.58 1.32 13 2 C11.68 3.32 10.36 4.64 9 6 C4.69127714 4.56375905 3.45397435 3.45397435 0 0 Z " fill="#E75A22" transform="translate(590,379)"/>
<path d="M0 0 C8.57142857 -0.28571429 8.57142857 -0.28571429 12 2 C11.67 2.66 11.34 3.32 11 4 C9.54119891 3.85892253 8.08296449 3.71197585 6.625 3.5625 C5.40683594 3.44068359 5.40683594 3.44068359 4.1640625 3.31640625 C2 3 2 3 0 2 C0 1.34 0 0.68 0 0 Z " fill="#F8CC88" transform="translate(587,377)"/>
<path d="M0 0 C0.66 0 1.32 0 2 0 C0.55922954 3.36179774 -1.24750021 5.59156268 -4 8 C-4.66 8 -5.32 8 -6 8 C-6 8.66 -6 9.32 -6 10 C-6.66 9.67 -7.32 9.34 -8 9 C-6.85459775 7.68712379 -5.70866567 6.37470979 -4.5625 5.0625 C-3.92441406 4.33160156 -3.28632813 3.60070312 -2.62890625 2.84765625 C-1.77458541 1.87860647 -0.91348825 0.91348825 0 0 Z " fill="#EA6421" transform="translate(320,645)"/>
<path d="M0 0 C1.1124494 3.33734821 1.16809985 5.66257186 0 9 C-2.5625 11.3125 -2.5625 11.3125 -5 13 C-3.58192622 8.52761347 -1.88695626 4.28853694 0 0 Z " fill="#DF5022" transform="translate(419,526)"/>
<path d="M0 0 C3.375 4.5 3.375 4.5 4 8 C3.34 8 2.68 8 2 8 C1.67 9.65 1.34 11.3 1 13 C0.67 13 0.34 13 0 13 C0 8.71 0 4.42 0 0 Z " fill="#F88C26" transform="translate(336,432)"/>
<path d="M0 0 C0.66 0.33 1.32 0.66 2 1 C-0.97 3.97 -3.94 6.94 -7 10 C-7 6.04435836 -5.59478606 4.89133304 -3 2 C-2.01 1.34 -1.02 0.68 0 0 Z " fill="#FAE7D7" transform="translate(345,650)"/>
<path d="M0 0 C0 3 0 3 -1.53125 4.60546875 C-2.1809375 5.12753906 -2.830625 5.64960938 -3.5 6.1875 C-4.1496875 6.71730469 -4.799375 7.24710937 -5.46875 7.79296875 C-5.9740625 8.19128906 -6.479375 8.58960938 -7 9 C-7.66 8.67 -8.32 8.34 -9 8 C-6.03 5.36 -3.06 2.72 0 0 Z " fill="#FACF8D" transform="translate(419,314)"/>
<path d="M0 0 C3.53600465 1.91135386 5.78972846 3.62642766 8 7 C4.21388773 6.45912682 2.44599233 4.88277668 0 2 C0 1.34 0 0.68 0 0 Z " fill="#FBDBA0" transform="translate(652,314)"/>
<path d="M0 0 C0.66 0 1.32 0 2 0 C3.125 5.75 3.125 5.75 2 8 C1.34 8 0.68 8 0 8 C0 5.36 0 2.72 0 0 Z " fill="#E3612F" transform="translate(200,711)"/>
</svg>
